<?xml version="1.0" encoding="utf-8" standalone="no"?>
<!DOCTYPE svg PUBLIC "-//W3C//DTD SVG 1.1//EN"
  "http://www.w3.org/Graphics/SVG/1.1/DTD/svg11.dtd">
<!-- Created with matplotlib (https://matplotlib.org/) -->
<svg height="288pt" version="1.1" viewBox="0 0 432 288" width="432pt" xmlns="http://www.w3.org/2000/svg" xmlns:xlink="http://www.w3.org/1999/xlink">
 <defs>
  <style type="text/css">
*{stroke-linecap:butt;stroke-linejoin:round;}
  </style>
 </defs>
 <g id="figure_1">
  <g id="patch_1">
   <path d="M 0 288 
L 432 288 
L 432 0 
L 0 0 
z
" style="fill:#ffffff;"/>
  </g>
  <g id="axes_1">
   <g id="patch_2">
    <path d="M 54 252 
L 388.8 252 
L 388.8 34.56 
L 54 34.56 
z
" style="fill:#ffffff;"/>
   </g>
   <g id="matplotlib.axis_1">
    <g id="xtick_1">
     <g id="line2d_1">
      <path clip-path="url(#p97916bd57e)" d="M 69.218182 252 
L 69.218182 34.56 
" style="fill:none;stroke:#cccccc;stroke-linecap:round;"/>
     </g>
     <g id="text_1">
      <!-- 0 -->
      <defs>
       <path d="M 31.78125 66.40625 
Q 24.171875 66.40625 20.328125 58.90625 
Q 16.5 51.421875 16.5 36.375 
Q 16.5 21.390625 20.328125 13.890625 
Q 24.171875 6.390625 31.78125 6.390625 
Q 39.453125 6.390625 43.28125 13.890625 
Q 47.125 21.390625 47.125 36.375 
Q 47.125 51.421875 43.28125 58.90625 
Q 39.453125 66.40625 31.78125 66.40625 
z
M 31.78125 74.21875 
Q 44.046875 74.21875 50.515625 64.515625 
Q 56.984375 54.828125 56.984375 36.375 
Q 56.984375 17.96875 50.515625 8.265625 
Q 44.046875 -1.421875 31.78125 -1.421875 
Q 19.53125 -1.421875 13.0625 8.265625 
Q 6.59375 17.96875 6.59375 36.375 
Q 6.59375 54.828125 13.0625 64.515625 
Q 19.53125 74.21875 31.78125 74.21875 
z
" id="DejaVuSans-48"/>
      </defs>
      <g style="fill:#262626;" transform="translate(65.718807 269.858281)scale(0.11 -0.11)">
       <use xlink:href="#DejaVuSans-48"/>
      </g>
     </g>
    </g>
    <g id="xtick_2">
     <g id="line2d_2">
      <path clip-path="url(#p97916bd57e)" d="M 99.654545 252 
L 99.654545 34.56 
" style="fill:none;stroke:#cccccc;stroke-linecap:round;"/>
     </g>
     <g id="text_2">
      <!-- 1 -->
      <defs>
       <path d="M 12.40625 8.296875 
L 28.515625 8.296875 
L 28.515625 63.921875 
L 10.984375 60.40625 
L 10.984375 69.390625 
L 28.421875 72.90625 
L 38.28125 72.90625 
L 38.28125 8.296875 
L 54.390625 8.296875 
L 54.390625 0 
L 12.40625 0 
z
" id="DejaVuSans-49"/>
      </defs>
      <g style="fill:#262626;" transform="translate(96.15517 269.858281)scale(0.11 -0.11)">
       <use xlink:href="#DejaVuSans-49"/>
      </g>
     </g>
    </g>
    <g id="xtick_3">
     <g id="line2d_3">
      <path clip-path="url(#p97916bd57e)" d="M 130.090909 252 
L 130.090909 34.56 
" style="fill:none;stroke:#cccccc;stroke-linecap:round;"/>
     </g>
     <g id="text_3">
      <!-- 2 -->
      <defs>
       <path d="M 19.1875 8.296875 
L 53.609375 8.296875 
L 53.609375 0 
L 7.328125 0 
L 7.328125 8.296875 
Q 12.9375 14.109375 22.625 23.890625 
Q 32.328125 33.6875 34.8125 36.53125 
Q 39.546875 41.84375 41.421875 45.53125 
Q 43.3125 49.21875 43.3125 52.78125 
Q 43.3125 58.59375 39.234375 62.25 
Q 35.15625 65.921875 28.609375 65.921875 
Q 23.96875 65.921875 18.8125 64.3125 
Q 13.671875 62.703125 7.8125 59.421875 
L 7.8125 69.390625 
Q 13.765625 71.78125 18.9375 73 
Q 24.125 74.21875 28.421875 74.21875 
Q 39.75 74.21875 46.484375 68.546875 
Q 53.21875 62.890625 53.21875 53.421875 
Q 53.21875 48.921875 51.53125 44.890625 
Q 49.859375 40.875 45.40625 35.40625 
Q 44.1875 33.984375 37.640625 27.21875 
Q 31.109375 20.453125 19.1875 8.296875 
z
" id="DejaVuSans-50"/>
      </defs>
      <g style="fill:#262626;" transform="translate(126.591534 269.858281)scale(0.11 -0.11)">
       <use xlink:href="#DejaVuSans-50"/>
      </g>
     </g>
    </g>
    <g id="xtick_4">
     <g id="line2d_4">
      <path clip-path="url(#p97916bd57e)" d="M 160.527273 252 
L 160.527273 34.56 
" style="fill:none;stroke:#cccccc;stroke-linecap:round;"/>
     </g>
     <g id="text_4">
      <!-- 3 -->
      <defs>
       <path d="M 40.578125 39.3125 
Q 47.65625 37.796875 51.625 33 
Q 55.609375 28.21875 55.609375 21.1875 
Q 55.609375 10.40625 48.1875 4.484375 
Q 40.765625 -1.421875 27.09375 -1.421875 
Q 22.515625 -1.421875 17.65625 -0.515625 
Q 12.796875 0.390625 7.625 2.203125 
L 7.625 11.71875 
Q 11.71875 9.328125 16.59375 8.109375 
Q 21.484375 6.890625 26.8125 6.890625 
Q 36.078125 6.890625 40.9375 10.546875 
Q 45.796875 14.203125 45.796875 21.1875 
Q 45.796875 27.640625 41.28125 31.265625 
Q 36.765625 34.90625 28.71875 34.90625 
L 20.21875 34.90625 
L 20.21875 43.015625 
L 29.109375 43.015625 
Q 36.375 43.015625 40.234375 45.921875 
Q 44.09375 48.828125 44.09375 54.296875 
Q 44.09375 59.90625 40.109375 62.90625 
Q 36.140625 65.921875 28.71875 65.921875 
Q 24.65625 65.921875 20.015625 65.03125 
Q 15.375 64.15625 9.8125 62.3125 
L 9.8125 71.09375 
Q 15.4375 72.65625 20.34375 73.4375 
Q 25.25 74.21875 29.59375 74.21875 
Q 40.828125 74.21875 47.359375 69.109375 
Q 53.90625 64.015625 53.90625 55.328125 
Q 53.90625 49.265625 50.4375 45.09375 
Q 46.96875 40.921875 40.578125 39.3125 
z
" id="DejaVuSans-51"/>
      </defs>
      <g style="fill:#262626;" transform="translate(157.027898 269.858281)scale(0.11 -0.11)">
       <use xlink:href="#DejaVuSans-51"/>
      </g>
     </g>
    </g>
    <g id="xtick_5">
     <g id="line2d_5">
      <path clip-path="url(#p97916bd57e)" d="M 190.963636 252 
L 190.963636 34.56 
" style="fill:none;stroke:#cccccc;stroke-linecap:round;"/>
     </g>
     <g id="text_5">
      <!-- 4 -->
      <defs>
       <path d="M 37.796875 64.3125 
L 12.890625 25.390625 
L 37.796875 25.390625 
z
M 35.203125 72.90625 
L 47.609375 72.90625 
L 47.609375 25.390625 
L 58.015625 25.390625 
L 58.015625 17.1875 
L 47.609375 17.1875 
L 47.609375 0 
L 37.796875 0 
L 37.796875 17.1875 
L 4.890625 17.1875 
L 4.890625 26.703125 
z
" id="DejaVuSans-52"/>
      </defs>
      <g style="fill:#262626;" transform="translate(187.464261 269.858281)scale(0.11 -0.11)">
       <use xlink:href="#DejaVuSans-52"/>
      </g>
     </g>
    </g>
    <g id="xtick_6">
     <g id="line2d_6">
      <path clip-path="url(#p97916bd57e)" d="M 221.4 252 
L 221.4 34.56 
" style="fill:none;stroke:#cccccc;stroke-linecap:round;"/>
     </g>
     <g id="text_6">
      <!-- 5 -->
      <defs>
       <path d="M 10.796875 72.90625 
L 49.515625 72.90625 
L 49.515625 64.59375 
L 19.828125 64.59375 
L 19.828125 46.734375 
Q 21.96875 47.46875 24.109375 47.828125 
Q 26.265625 48.1875 28.421875 48.1875 
Q 40.625 48.1875 47.75 41.5 
Q 54.890625 34.8125 54.890625 23.390625 
Q 54.890625 11.625 47.5625 5.09375 
Q 40.234375 -1.421875 26.90625 -1.421875 
Q 22.3125 -1.421875 17.546875 -0.640625 
Q 12.796875 0.140625 7.71875 1.703125 
L 7.71875 11.625 
Q 12.109375 9.234375 16.796875 8.0625 
Q 21.484375 6.890625 26.703125 6.890625 
Q 35.15625 6.890625 40.078125 11.328125 
Q 45.015625 15.765625 45.015625 23.390625 
Q 45.015625 31 40.078125 35.4375 
Q 35.15625 39.890625 26.703125 39.890625 
Q 22.75 39.890625 18.8125 39.015625 
Q 14.890625 38.140625 10.796875 36.28125 
z
" id="DejaVuSans-53"/>
      </defs>
      <g style="fill:#262626;" transform="translate(217.900625 269.858281)scale(0.11 -0.11)">
       <use xlink:href="#DejaVuSans-53"/>
      </g>
     </g>
    </g>
    <g id="xtick_7">
     <g id="line2d_7">
      <path clip-path="url(#p97916bd57e)" d="M 251.836364 252 
L 251.836364 34.56 
" style="fill:none;stroke:#cccccc;stroke-linecap:round;"/>
     </g>
     <g id="text_7">
      <!-- 6 -->
      <defs>
       <path d="M 33.015625 40.375 
Q 26.375 40.375 22.484375 35.828125 
Q 18.609375 31.296875 18.609375 23.390625 
Q 18.609375 15.53125 22.484375 10.953125 
Q 26.375 6.390625 33.015625 6.390625 
Q 39.65625 6.390625 43.53125 10.953125 
Q 47.40625 15.53125 47.40625 23.390625 
Q 47.40625 31.296875 43.53125 35.828125 
Q 39.65625 40.375 33.015625 40.375 
z
M 52.59375 71.296875 
L 52.59375 62.3125 
Q 48.875 64.0625 45.09375 64.984375 
Q 41.3125 65.921875 37.59375 65.921875 
Q 27.828125 65.921875 22.671875 59.328125 
Q 17.53125 52.734375 16.796875 39.40625 
Q 19.671875 43.65625 24.015625 45.921875 
Q 28.375 48.1875 33.59375 48.1875 
Q 44.578125 48.1875 50.953125 41.515625 
Q 57.328125 34.859375 57.328125 23.390625 
Q 57.328125 12.15625 50.6875 5.359375 
Q 44.046875 -1.421875 33.015625 -1.421875 
Q 20.359375 -1.421875 13.671875 8.265625 
Q 6.984375 17.96875 6.984375 36.375 
Q 6.984375 53.65625 15.1875 63.9375 
Q 23.390625 74.21875 37.203125 74.21875 
Q 40.921875 74.21875 44.703125 73.484375 
Q 48.484375 72.75 52.59375 71.296875 
z
" id="DejaVuSans-54"/>
      </defs>
      <g style="fill:#262626;" transform="translate(248.336989 269.858281)scale(0.11 -0.11)">
       <use xlink:href="#DejaVuSans-54"/>
      </g>
     </g>
    </g>
    <g id="xtick_8">
     <g id="line2d_8">
      <path clip-path="url(#p97916bd57e)" d="M 282.272727 252 
L 282.272727 34.56 
" style="fill:none;stroke:#cccccc;stroke-linecap:round;"/>
     </g>
     <g id="text_8">
      <!-- 7 -->
      <defs>
       <path d="M 8.203125 72.90625 
L 55.078125 72.90625 
L 55.078125 68.703125 
L 28.609375 0 
L 18.3125 0 
L 43.21875 64.59375 
L 8.203125 64.59375 
z
" id="DejaVuSans-55"/>
      </defs>
      <g style="fill:#262626;" transform="translate(278.773352 269.858281)scale(0.11 -0.11)">
       <use xlink:href="#DejaVuSans-55"/>
      </g>
     </g>
    </g>
    <g id="xtick_9">
     <g id="line2d_9">
      <path clip-path="url(#p97916bd57e)" d="M 312.709091 252 
L 312.709091 34.56 
" style="fill:none;stroke:#cccccc;stroke-linecap:round;"/>
     </g>
     <g id="text_9">
      <!-- 8 -->
      <defs>
       <path d="M 31.78125 34.625 
Q 24.75 34.625 20.71875 30.859375 
Q 16.703125 27.09375 16.703125 20.515625 
Q 16.703125 13.921875 20.71875 10.15625 
Q 24.75 6.390625 31.78125 6.390625 
Q 38.8125 6.390625 42.859375 10.171875 
Q 46.921875 13.96875 46.921875 20.515625 
Q 46.921875 27.09375 42.890625 30.859375 
Q 38.875 34.625 31.78125 34.625 
z
M 21.921875 38.8125 
Q 15.578125 40.375 12.03125 44.71875 
Q 8.5 49.078125 8.5 55.328125 
Q 8.5 64.0625 14.71875 69.140625 
Q 20.953125 74.21875 31.78125 74.21875 
Q 42.671875 74.21875 48.875 69.140625 
Q 55.078125 64.0625 55.078125 55.328125 
Q 55.078125 49.078125 51.53125 44.71875 
Q 48 40.375 41.703125 38.8125 
Q 48.828125 37.15625 52.796875 32.3125 
Q 56.78125 27.484375 56.78125 20.515625 
Q 56.78125 9.90625 50.3125 4.234375 
Q 43.84375 -1.421875 31.78125 -1.421875 
Q 19.734375 -1.421875 13.25 4.234375 
Q 6.78125 9.90625 6.78125 20.515625 
Q 6.78125 27.484375 10.78125 32.3125 
Q 14.796875 37.15625 21.921875 38.8125 
z
M 18.3125 54.390625 
Q 18.3125 48.734375 21.84375 45.5625 
Q 25.390625 42.390625 31.78125 42.390625 
Q 38.140625 42.390625 41.71875 45.5625 
Q 45.3125 48.734375 45.3125 54.390625 
Q 45.3125 60.0625 41.71875 63.234375 
Q 38.140625 66.40625 31.78125 66.40625 
Q 25.390625 66.40625 21.84375 63.234375 
Q 18.3125 60.0625 18.3125 54.390625 
z
" id="DejaVuSans-56"/>
      </defs>
      <g style="fill:#262626;" transform="translate(309.209716 269.858281)scale(0.11 -0.11)">
       <use xlink:href="#DejaVuSans-56"/>
      </g>
     </g>
    </g>
    <g id="xtick_10">
     <g id="line2d_10">
      <path clip-path="url(#p97916bd57e)" d="M 343.145455 252 
L 343.145455 34.56 
" style="fill:none;stroke:#cccccc;stroke-linecap:round;"/>
     </g>
     <g id="text_10">
      <!-- 9 -->
      <defs>
       <path d="M 10.984375 1.515625 
L 10.984375 10.5 
Q 14.703125 8.734375 18.5 7.8125 
Q 22.3125 6.890625 25.984375 6.890625 
Q 35.75 6.890625 40.890625 13.453125 
Q 46.046875 20.015625 46.78125 33.40625 
Q 43.953125 29.203125 39.59375 26.953125 
Q 35.25 24.703125 29.984375 24.703125 
Q 19.046875 24.703125 12.671875 31.3125 
Q 6.296875 37.9375 6.296875 49.421875 
Q 6.296875 60.640625 12.9375 67.421875 
Q 19.578125 74.21875 30.609375 74.21875 
Q 43.265625 74.21875 49.921875 64.515625 
Q 56.59375 54.828125 56.59375 36.375 
Q 56.59375 19.140625 48.40625 8.859375 
Q 40.234375 -1.421875 26.421875 -1.421875 
Q 22.703125 -1.421875 18.890625 -0.6875 
Q 15.09375 0.046875 10.984375 1.515625 
z
M 30.609375 32.421875 
Q 37.25 32.421875 41.125 36.953125 
Q 45.015625 41.5 45.015625 49.421875 
Q 45.015625 57.28125 41.125 61.84375 
Q 37.25 66.40625 30.609375 66.40625 
Q 23.96875 66.40625 20.09375 61.84375 
Q 16.21875 57.28125 16.21875 49.421875 
Q 16.21875 41.5 20.09375 36.953125 
Q 23.96875 32.421875 30.609375 32.421875 
z
" id="DejaVuSans-57"/>
      </defs>
      <g style="fill:#262626;" transform="translate(339.64608 269.858281)scale(0.11 -0.11)">
       <use xlink:href="#DejaVuSans-57"/>
      </g>
     </g>
    </g>
    <g id="xtick_11">
     <g id="line2d_11">
      <path clip-path="url(#p97916bd57e)" d="M 373.581818 252 
L 373.581818 34.56 
" style="fill:none;stroke:#cccccc;stroke-linecap:round;"/>
     </g>
     <g id="text_11">
      <!-- 10 -->
      <g style="fill:#262626;" transform="translate(366.583068 269.858281)scale(0.11 -0.11)">
       <use xlink:href="#DejaVuSans-49"/>
       <use x="63.623047" xlink:href="#DejaVuSans-48"/>
      </g>
     </g>
    </g>
    <g id="text_12">
     <!-- Anzahl maskierte Zellen -->
     <defs>
      <path d="M 34.1875 63.1875 
L 20.796875 26.90625 
L 47.609375 26.90625 
z
M 28.609375 72.90625 
L 39.796875 72.90625 
L 67.578125 0 
L 57.328125 0 
L 50.6875 18.703125 
L 17.828125 18.703125 
L 11.1875 0 
L 0.78125 0 
z
" id="DejaVuSans-65"/>
      <path d="M 54.890625 33.015625 
L 54.890625 0 
L 45.90625 0 
L 45.90625 32.71875 
Q 45.90625 40.484375 42.875 44.328125 
Q 39.84375 48.1875 33.796875 48.1875 
Q 26.515625 48.1875 22.3125 43.546875 
Q 18.109375 38.921875 18.109375 30.90625 
L 18.109375 0 
L 9.078125 0 
L 9.078125 54.6875 
L 18.109375 54.6875 
L 18.109375 46.1875 
Q 21.34375 51.125 25.703125 53.5625 
Q 30.078125 56 35.796875 56 
Q 45.21875 56 50.046875 50.171875 
Q 54.890625 44.34375 54.890625 33.015625 
z
" id="DejaVuSans-110"/>
      <path d="M 5.515625 54.6875 
L 48.1875 54.6875 
L 48.1875 46.484375 
L 14.40625 7.171875 
L 48.1875 7.171875 
L 48.1875 0 
L 4.296875 0 
L 4.296875 8.203125 
L 38.09375 47.515625 
L 5.515625 47.515625 
z
" id="DejaVuSans-122"/>
      <path d="M 34.28125 27.484375 
Q 23.390625 27.484375 19.1875 25 
Q 14.984375 22.515625 14.984375 16.5 
Q 14.984375 11.71875 18.140625 8.90625 
Q 21.296875 6.109375 26.703125 6.109375 
Q 34.1875 6.109375 38.703125 11.40625 
Q 43.21875 16.703125 43.21875 25.484375 
L 43.21875 27.484375 
z
M 52.203125 31.203125 
L 52.203125 0 
L 43.21875 0 
L 43.21875 8.296875 
Q 40.140625 3.328125 35.546875 0.953125 
Q 30.953125 -1.421875 24.3125 -1.421875 
Q 15.921875 -1.421875 10.953125 3.296875 
Q 6 8.015625 6 15.921875 
Q 6 25.140625 12.171875 29.828125 
Q 18.359375 34.515625 30.609375 34.515625 
L 43.21875 34.515625 
L 43.21875 35.40625 
Q 43.21875 41.609375 39.140625 45 
Q 35.0625 48.390625 27.6875 48.390625 
Q 23 48.390625 18.546875 47.265625 
Q 14.109375 46.140625 10.015625 43.890625 
L 10.015625 52.203125 
Q 14.9375 54.109375 19.578125 55.046875 
Q 24.21875 56 28.609375 56 
Q 40.484375 56 46.34375 49.84375 
Q 52.203125 43.703125 52.203125 31.203125 
z
" id="DejaVuSans-97"/>
      <path d="M 54.890625 33.015625 
L 54.890625 0 
L 45.90625 0 
L 45.90625 32.71875 
Q 45.90625 40.484375 42.875 44.328125 
Q 39.84375 48.1875 33.796875 48.1875 
Q 26.515625 48.1875 22.3125 43.546875 
Q 18.109375 38.921875 18.109375 30.90625 
L 18.109375 0 
L 9.078125 0 
L 9.078125 75.984375 
L 18.109375 75.984375 
L 18.109375 46.1875 
Q 21.34375 51.125 25.703125 53.5625 
Q 30.078125 56 35.796875 56 
Q 45.21875 56 50.046875 50.171875 
Q 54.890625 44.34375 54.890625 33.015625 
z
" id="DejaVuSans-104"/>
      <path d="M 9.421875 75.984375 
L 18.40625 75.984375 
L 18.40625 0 
L 9.421875 0 
z
" id="DejaVuSans-108"/>
      <path id="DejaVuSans-32"/>
      <path d="M 52 44.1875 
Q 55.375 50.25 60.0625 53.125 
Q 64.75 56 71.09375 56 
Q 79.640625 56 84.28125 50.015625 
Q 88.921875 44.046875 88.921875 33.015625 
L 88.921875 0 
L 79.890625 0 
L 79.890625 32.71875 
Q 79.890625 40.578125 77.09375 44.375 
Q 74.3125 48.1875 68.609375 48.1875 
Q 61.625 48.1875 57.5625 43.546875 
Q 53.515625 38.921875 53.515625 30.90625 
L 53.515625 0 
L 44.484375 0 
L 44.484375 32.71875 
Q 44.484375 40.625 41.703125 44.40625 
Q 38.921875 48.1875 33.109375 48.1875 
Q 26.21875 48.1875 22.15625 43.53125 
Q 18.109375 38.875 18.109375 30.90625 
L 18.109375 0 
L 9.078125 0 
L 9.078125 54.6875 
L 18.109375 54.6875 
L 18.109375 46.1875 
Q 21.1875 51.21875 25.484375 53.609375 
Q 29.78125 56 35.6875 56 
Q 41.65625 56 45.828125 52.96875 
Q 50 49.953125 52 44.1875 
z
" id="DejaVuSans-109"/>
      <path d="M 44.28125 53.078125 
L 44.28125 44.578125 
Q 40.484375 46.53125 36.375 47.5 
Q 32.28125 48.484375 27.875 48.484375 
Q 21.1875 48.484375 17.84375 46.4375 
Q 14.5 44.390625 14.5 40.28125 
Q 14.5 37.15625 16.890625 35.375 
Q 19.28125 33.59375 26.515625 31.984375 
L 29.59375 31.296875 
Q 39.15625 29.25 43.1875 25.515625 
Q 47.21875 21.78125 47.21875 15.09375 
Q 47.21875 7.46875 41.1875 3.015625 
Q 35.15625 -1.421875 24.609375 -1.421875 
Q 20.21875 -1.421875 15.453125 -0.5625 
Q 10.6875 0.296875 5.421875 2 
L 5.421875 11.28125 
Q 10.40625 8.6875 15.234375 7.390625 
Q 20.0625 6.109375 24.8125 6.109375 
Q 31.15625 6.109375 34.5625 8.28125 
Q 37.984375 10.453125 37.984375 14.40625 
Q 37.984375 18.0625 35.515625 20.015625 
Q 33.0625 21.96875 24.703125 23.78125 
L 21.578125 24.515625 
Q 13.234375 26.265625 9.515625 29.90625 
Q 5.8125 33.546875 5.8125 39.890625 
Q 5.8125 47.609375 11.28125 51.796875 
Q 16.75 56 26.8125 56 
Q 31.78125 56 36.171875 55.265625 
Q 40.578125 54.546875 44.28125 53.078125 
z
" id="DejaVuSans-115"/>
      <path d="M 9.078125 75.984375 
L 18.109375 75.984375 
L 18.109375 31.109375 
L 44.921875 54.6875 
L 56.390625 54.6875 
L 27.390625 29.109375 
L 57.625 0 
L 45.90625 0 
L 18.109375 26.703125 
L 18.109375 0 
L 9.078125 0 
z
" id="DejaVuSans-107"/>
      <path d="M 9.421875 54.6875 
L 18.40625 54.6875 
L 18.40625 0 
L 9.421875 0 
z
M 9.421875 75.984375 
L 18.40625 75.984375 
L 18.40625 64.59375 
L 9.421875 64.59375 
z
" id="DejaVuSans-105"/>
      <path d="M 56.203125 29.59375 
L 56.203125 25.203125 
L 14.890625 25.203125 
Q 15.484375 15.921875 20.484375 11.0625 
Q 25.484375 6.203125 34.421875 6.203125 
Q 39.59375 6.203125 44.453125 7.46875 
Q 49.3125 8.734375 54.109375 11.28125 
L 54.109375 2.78125 
Q 49.265625 0.734375 44.1875 -0.34375 
Q 39.109375 -1.421875 33.890625 -1.421875 
Q 20.796875 -1.421875 13.15625 6.1875 
Q 5.515625 13.8125 5.515625 26.8125 
Q 5.515625 40.234375 12.765625 48.109375 
Q 20.015625 56 32.328125 56 
Q 43.359375 56 49.78125 48.890625 
Q 56.203125 41.796875 56.203125 29.59375 
z
M 47.21875 32.234375 
Q 47.125 39.59375 43.09375 43.984375 
Q 39.0625 48.390625 32.421875 48.390625 
Q 24.90625 48.390625 20.390625 44.140625 
Q 15.875 39.890625 15.1875 32.171875 
z
" id="DejaVuSans-101"/>
      <path d="M 41.109375 46.296875 
Q 39.59375 47.171875 37.8125 47.578125 
Q 36.03125 48 33.890625 48 
Q 26.265625 48 22.1875 43.046875 
Q 18.109375 38.09375 18.109375 28.8125 
L 18.109375 0 
L 9.078125 0 
L 9.078125 54.6875 
L 18.109375 54.6875 
L 18.109375 46.1875 
Q 20.953125 51.171875 25.484375 53.578125 
Q 30.03125 56 36.53125 56 
Q 37.453125 56 38.578125 55.875 
Q 39.703125 55.765625 41.0625 55.515625 
z
" id="DejaVuSans-114"/>
      <path d="M 18.3125 70.21875 
L 18.3125 54.6875 
L 36.8125 54.6875 
L 36.8125 47.703125 
L 18.3125 47.703125 
L 18.3125 18.015625 
Q 18.3125 11.328125 20.140625 9.421875 
Q 21.96875 7.515625 27.59375 7.515625 
L 36.8125 7.515625 
L 36.8125 0 
L 27.59375 0 
Q 17.1875 0 13.234375 3.875 
Q 9.28125 7.765625 9.28125 18.015625 
L 9.28125 47.703125 
L 2.6875 47.703125 
L 2.6875 54.6875 
L 9.28125 54.6875 
L 9.28125 70.21875 
z
" id="DejaVuSans-116"/>
      <path d="M 5.609375 72.90625 
L 62.890625 72.90625 
L 62.890625 65.375 
L 16.796875 8.296875 
L 64.015625 8.296875 
L 64.015625 0 
L 4.5 0 
L 4.5 7.515625 
L 50.59375 64.59375 
L 5.609375 64.59375 
z
" id="DejaVuSans-90"/>
     </defs>
     <g style="fill:#262626;" transform="translate(148.763438 285.264063)scale(0.12 -0.12)">
      <use xlink:href="#DejaVuSans-65"/>
      <use x="68.408203" xlink:href="#DejaVuSans-110"/>
      <use x="131.787109" xlink:href="#DejaVuSans-122"/>
      <use x="184.277344" xlink:href="#DejaVuSans-97"/>
      <use x="245.556641" xlink:href="#DejaVuSans-104"/>
      <use x="308.935547" xlink:href="#DejaVuSans-108"/>
      <use x="336.71875" xlink:href="#DejaVuSans-32"/>
      <use x="368.505859" xlink:href="#DejaVuSans-109"/>
      <use x="465.917969" xlink:href="#DejaVuSans-97"/>
      <use x="527.197266" xlink:href="#DejaVuSans-115"/>
      <use x="579.296875" xlink:href="#DejaVuSans-107"/>
      <use x="637.207031" xlink:href="#DejaVuSans-105"/>
      <use x="664.990234" xlink:href="#DejaVuSans-101"/>
      <use x="726.513672" xlink:href="#DejaVuSans-114"/>
      <use x="767.626953" xlink:href="#DejaVuSans-116"/>
      <use x="806.835938" xlink:href="#DejaVuSans-101"/>
      <use x="868.359375" xlink:href="#DejaVuSans-32"/>
      <use x="900.146484" xlink:href="#DejaVuSans-90"/>
      <use x="968.652344" xlink:href="#DejaVuSans-101"/>
      <use x="1030.175781" xlink:href="#DejaVuSans-108"/>
      <use x="1057.958984" xlink:href="#DejaVuSans-108"/>
      <use x="1085.742188" xlink:href="#DejaVuSans-101"/>
      <use x="1147.265625" xlink:href="#DejaVuSans-110"/>
     </g>
    </g>
   </g>
   <g id="matplotlib.axis_2">
    <g id="ytick_1">
     <g id="line2d_12">
      <path clip-path="url(#p97916bd57e)" d="M 54 226.149826 
L 388.8 226.149826 
" style="fill:none;stroke:#cccccc;stroke-linecap:round;"/>
     </g>
     <g id="text_13">
      <!-- 0.4 -->
      <defs>
       <path d="M 10.6875 12.40625 
L 21 12.40625 
L 21 0 
L 10.6875 0 
z
" id="DejaVuSans-46"/>
      </defs>
      <g style="fill:#262626;" transform="translate(27.006563 230.328966)scale(0.11 -0.11)">
       <use xlink:href="#DejaVuSans-48"/>
       <use x="63.623047" xlink:href="#DejaVuSans-46"/>
       <use x="95.410156" xlink:href="#DejaVuSans-52"/>
      </g>
     </g>
    </g>
    <g id="ytick_2">
     <g id="line2d_13">
      <path clip-path="url(#p97916bd57e)" d="M 54 194.653754 
L 388.8 194.653754 
" style="fill:none;stroke:#cccccc;stroke-linecap:round;"/>
     </g>
     <g id="text_14">
      <!-- 0.5 -->
      <g style="fill:#262626;" transform="translate(27.006563 198.832895)scale(0.11 -0.11)">
       <use xlink:href="#DejaVuSans-48"/>
       <use x="63.623047" xlink:href="#DejaVuSans-46"/>
       <use x="95.410156" xlink:href="#DejaVuSans-53"/>
      </g>
     </g>
    </g>
    <g id="ytick_3">
     <g id="line2d_14">
      <path clip-path="url(#p97916bd57e)" d="M 54 163.157683 
L 388.8 163.157683 
" style="fill:none;stroke:#cccccc;stroke-linecap:round;"/>
     </g>
     <g id="text_15">
      <!-- 0.6 -->
      <g style="fill:#262626;" transform="translate(27.006563 167.336823)scale(0.11 -0.11)">
       <use xlink:href="#DejaVuSans-48"/>
       <use x="63.623047" xlink:href="#DejaVuSans-46"/>
       <use x="95.410156" xlink:href="#DejaVuSans-54"/>
      </g>
     </g>
    </g>
    <g id="ytick_4">
     <g id="line2d_15">
      <path clip-path="url(#p97916bd57e)" d="M 54 131.661611 
L 388.8 131.661611 
" style="fill:none;stroke:#cccccc;stroke-linecap:round;"/>
     </g>
     <g id="text_16">
      <!-- 0.7 -->
      <g style="fill:#262626;" transform="translate(27.006563 135.840752)scale(0.11 -0.11)">
       <use xlink:href="#DejaVuSans-48"/>
       <use x="63.623047" xlink:href="#DejaVuSans-46"/>
       <use x="95.410156" xlink:href="#DejaVuSans-55"/>
      </g>
     </g>
    </g>
    <g id="ytick_5">
     <g id="line2d_16">
      <path clip-path="url(#p97916bd57e)" d="M 54 100.16554 
L 388.8 100.16554 
" style="fill:none;stroke:#cccccc;stroke-linecap:round;"/>
     </g>
     <g id="text_17">
      <!-- 0.8 -->
      <g style="fill:#262626;" transform="translate(27.006563 104.344681)scale(0.11 -0.11)">
       <use xlink:href="#DejaVuSans-48"/>
       <use x="63.623047" xlink:href="#DejaVuSans-46"/>
       <use x="95.410156" xlink:href="#DejaVuSans-56"/>
      </g>
     </g>
    </g>
    <g id="ytick_6">
     <g id="line2d_17">
      <path clip-path="url(#p97916bd57e)" d="M 54 68.669468 
L 388.8 68.669468 
" style="fill:none;stroke:#cccccc;stroke-linecap:round;"/>
     </g>
     <g id="text_18">
      <!-- 0.9 -->
      <g style="fill:#262626;" transform="translate(27.006563 72.848609)scale(0.11 -0.11)">
       <use xlink:href="#DejaVuSans-48"/>
       <use x="63.623047" xlink:href="#DejaVuSans-46"/>
       <use x="95.410156" xlink:href="#DejaVuSans-57"/>
      </g>
     </g>
    </g>
    <g id="ytick_7">
     <g id="line2d_18">
      <path clip-path="url(#p97916bd57e)" d="M 54 37.173397 
L 388.8 37.173397 
" style="fill:none;stroke:#cccccc;stroke-linecap:round;"/>
     </g>
     <g id="text_19">
      <!-- 1.0 -->
      <g style="fill:#262626;" transform="translate(27.006563 41.352538)scale(0.11 -0.11)">
       <use xlink:href="#DejaVuSans-49"/>
       <use x="63.623047" xlink:href="#DejaVuSans-46"/>
       <use x="95.410156" xlink:href="#DejaVuSans-48"/>
      </g>
     </g>
    </g>
    <g id="text_20">
     <!-- Test Accuracy -->
     <defs>
      <path d="M -0.296875 72.90625 
L 61.375 72.90625 
L 61.375 64.59375 
L 35.5 64.59375 
L 35.5 0 
L 25.59375 0 
L 25.59375 64.59375 
L -0.296875 64.59375 
z
" id="DejaVuSans-84"/>
      <path d="M 48.78125 52.59375 
L 48.78125 44.1875 
Q 44.96875 46.296875 41.140625 47.34375 
Q 37.3125 48.390625 33.40625 48.390625 
Q 24.65625 48.390625 19.8125 42.84375 
Q 14.984375 37.3125 14.984375 27.296875 
Q 14.984375 17.28125 19.8125 11.734375 
Q 24.65625 6.203125 33.40625 6.203125 
Q 37.3125 6.203125 41.140625 7.25 
Q 44.96875 8.296875 48.78125 10.40625 
L 48.78125 2.09375 
Q 45.015625 0.34375 40.984375 -0.53125 
Q 36.96875 -1.421875 32.421875 -1.421875 
Q 20.0625 -1.421875 12.78125 6.34375 
Q 5.515625 14.109375 5.515625 27.296875 
Q 5.515625 40.671875 12.859375 48.328125 
Q 20.21875 56 33.015625 56 
Q 37.15625 56 41.109375 55.140625 
Q 45.0625 54.296875 48.78125 52.59375 
z
" id="DejaVuSans-99"/>
      <path d="M 8.5 21.578125 
L 8.5 54.6875 
L 17.484375 54.6875 
L 17.484375 21.921875 
Q 17.484375 14.15625 20.5 10.265625 
Q 23.53125 6.390625 29.59375 6.390625 
Q 36.859375 6.390625 41.078125 11.03125 
Q 45.3125 15.671875 45.3125 23.6875 
L 45.3125 54.6875 
L 54.296875 54.6875 
L 54.296875 0 
L 45.3125 0 
L 45.3125 8.40625 
Q 42.046875 3.421875 37.71875 1 
Q 33.40625 -1.421875 27.6875 -1.421875 
Q 18.265625 -1.421875 13.375 4.4375 
Q 8.5 10.296875 8.5 21.578125 
z
M 31.109375 56 
z
" id="DejaVuSans-117"/>
      <path d="M 32.171875 -5.078125 
Q 28.375 -14.84375 24.75 -17.8125 
Q 21.140625 -20.796875 15.09375 -20.796875 
L 7.90625 -20.796875 
L 7.90625 -13.28125 
L 13.1875 -13.28125 
Q 16.890625 -13.28125 18.9375 -11.515625 
Q 21 -9.765625 23.484375 -3.21875 
L 25.09375 0.875 
L 2.984375 54.6875 
L 12.5 54.6875 
L 29.59375 11.921875 
L 46.6875 54.6875 
L 56.203125 54.6875 
z
" id="DejaVuSans-121"/>
     </defs>
     <g style="fill:#262626;" transform="translate(20.510937 184.395)rotate(-90)scale(0.12 -0.12)">
      <use xlink:href="#DejaVuSans-84"/>
      <use x="44.083984" xlink:href="#DejaVuSans-101"/>
      <use x="105.607422" xlink:href="#DejaVuSans-115"/>
      <use x="157.707031" xlink:href="#DejaVuSans-116"/>
      <use x="196.916016" xlink:href="#DejaVuSans-32"/>
      <use x="228.703125" xlink:href="#DejaVuSans-65"/>
      <use x="295.361328" xlink:href="#DejaVuSans-99"/>
      <use x="350.341797" xlink:href="#DejaVuSans-99"/>
      <use x="405.322266" xlink:href="#DejaVuSans-117"/>
      <use x="468.701172" xlink:href="#DejaVuSans-114"/>
      <use x="509.814453" xlink:href="#DejaVuSans-97"/>
      <use x="571.09375" xlink:href="#DejaVuSans-99"/>
      <use x="626.074219" xlink:href="#DejaVuSans-121"/>
     </g>
    </g>
   </g>
   <g id="PathCollection_1">
    <path clip-path="url(#p97916bd57e)" d="M 69.218182 47.443636 
C 70.013791 47.443636 70.776921 47.127537 71.339502 46.564957 
C 71.902083 46.002376 72.218182 45.239246 72.218182 44.443636 
C 72.218182 43.648027 71.902083 42.884897 71.339502 42.322316 
C 70.776921 41.759735 70.013791 41.443636 69.218182 41.443636 
C 68.422573 41.443636 67.659442 41.759735 67.096861 42.322316 
C 66.534281 42.884897 66.218182 43.648027 66.218182 44.443636 
C 66.218182 45.239246 66.534281 46.002376 67.096861 46.564957 
C 67.659442 47.127537 68.422573 47.443636 69.218182 47.443636 
z
" style="fill:#4c72b0;stroke:#ffffff;stroke-width:0.48;"/>
    <path clip-path="url(#p97916bd57e)" d="M 99.654545 48.115885 
C 100.450155 48.115885 101.213285 47.799786 101.775866 47.237205 
C 102.338447 46.674624 102.654545 45.911494 102.654545 45.115885 
C 102.654545 44.320275 102.338447 43.557145 101.775866 42.994564 
C 101.213285 42.431983 100.450155 42.115885 99.654545 42.115885 
C 98.858936 42.115885 98.095806 42.431983 97.533225 42.994564 
C 96.970644 43.557145 96.654545 44.320275 96.654545 45.115885 
C 96.654545 45.911494 96.970644 46.674624 97.533225 47.237205 
C 98.095806 47.799786 98.858936 48.115885 99.654545 48.115885 
z
" style="fill:#4c72b0;stroke:#ffffff;stroke-width:0.48;"/>
    <path clip-path="url(#p97916bd57e)" d="M 130.090909 48.663642 
C 130.886518 48.663642 131.649649 48.347543 132.212229 47.784963 
C 132.77481 47.222382 133.090909 46.459252 133.090909 45.663642 
C 133.090909 44.868033 132.77481 44.104903 132.212229 43.542322 
C 131.649649 42.979741 130.886518 42.663642 130.090909 42.663642 
C 129.2953 42.663642 128.532169 42.979741 127.969589 43.542322 
C 127.407008 44.104903 127.090909 44.868033 127.090909 45.663642 
C 127.090909 46.459252 127.407008 47.222382 127.969589 47.784963 
C 128.532169 48.347543 129.2953 48.663642 130.090909 48.663642 
z
" style="fill:#4c72b0;stroke:#ffffff;stroke-width:0.48;"/>
    <path clip-path="url(#p97916bd57e)" d="M 160.527273 51.477125 
C 161.322882 51.477125 162.086012 51.161026 162.648593 50.598446 
C 163.211174 50.035865 163.527273 49.272735 163.527273 48.477125 
C 163.527273 47.681516 163.211174 46.918386 162.648593 46.355805 
C 162.086012 45.793224 161.322882 45.477125 160.527273 45.477125 
C 159.731663 45.477125 158.968533 45.793224 158.405952 46.355805 
C 157.843372 46.918386 157.527273 47.681516 157.527273 48.477125 
C 157.527273 49.272735 157.843372 50.035865 158.405952 50.598446 
C 158.968533 51.161026 159.731663 51.477125 160.527273 51.477125 
z
" style="fill:#4c72b0;stroke:#ffffff;stroke-width:0.48;"/>
    <path clip-path="url(#p97916bd57e)" d="M 190.963636 73.629548 
C 191.759246 73.629548 192.522376 73.313449 193.084957 72.750869 
C 193.647537 72.188288 193.963636 71.425158 193.963636 70.629548 
C 193.963636 69.833939 193.647537 69.070809 193.084957 68.508228 
C 192.522376 67.945647 191.759246 67.629548 190.963636 67.629548 
C 190.168027 67.629548 189.404897 67.945647 188.842316 68.508228 
C 188.279735 69.070809 187.963636 69.833939 187.963636 70.629548 
C 187.963636 71.425158 188.279735 72.188288 188.842316 72.750869 
C 189.404897 73.313449 190.168027 73.629548 190.963636 73.629548 
z
" style="fill:#4c72b0;stroke:#ffffff;stroke-width:0.48;"/>
    <path clip-path="url(#p97916bd57e)" d="M 221.4 114.756026 
C 222.195609 114.756026 222.95874 114.439927 223.52132 113.877346 
C 224.083901 113.314765 224.4 112.551635 224.4 111.756026 
C 224.4 110.960416 224.083901 110.197286 223.52132 109.634705 
C 222.95874 109.072124 222.195609 108.756026 221.4 108.756026 
C 220.604391 108.756026 219.84126 109.072124 219.27868 109.634705 
C 218.716099 110.197286 218.4 110.960416 218.4 111.756026 
C 218.4 112.551635 218.716099 113.314765 219.27868 113.877346 
C 219.84126 114.439927 220.604391 114.756026 221.4 114.756026 
z
" style="fill:#4c72b0;stroke:#ffffff;stroke-width:0.48;"/>
    <path clip-path="url(#p97916bd57e)" d="M 251.836364 151.285802 
C 252.631973 151.285802 253.395103 150.969703 253.957684 150.407122 
C 254.520265 149.844542 254.836364 149.081411 254.836364 148.285802 
C 254.836364 147.490193 254.520265 146.727062 253.957684 146.164482 
C 253.395103 145.601901 252.631973 145.285802 251.836364 145.285802 
C 251.040754 145.285802 250.277624 145.601901 249.715043 146.164482 
C 249.152463 146.727062 248.836364 147.490193 248.836364 148.285802 
C 248.836364 149.081411 249.152463 149.844542 249.715043 150.407122 
C 250.277624 150.969703 251.040754 151.285802 251.836364 151.285802 
z
" style="fill:#4c72b0;stroke:#ffffff;stroke-width:0.48;"/>
    <path clip-path="url(#p97916bd57e)" d="M 282.272727 182.168007 
C 283.068337 182.168007 283.831467 181.851908 284.394048 181.289327 
C 284.956628 180.726747 285.272727 179.963616 285.272727 179.168007 
C 285.272727 178.372398 284.956628 177.609267 284.394048 177.046687 
C 283.831467 176.484106 283.068337 176.168007 282.272727 176.168007 
C 281.477118 176.168007 280.713988 176.484106 280.151407 177.046687 
C 279.588826 177.609267 279.272727 178.372398 279.272727 179.168007 
C 279.272727 179.963616 279.588826 180.726747 280.151407 181.289327 
C 280.713988 181.851908 281.477118 182.168007 282.272727 182.168007 
z
" style="fill:#4c72b0;stroke:#ffffff;stroke-width:0.48;"/>
    <path clip-path="url(#p97916bd57e)" d="M 312.709091 208.219984 
C 313.5047 208.219984 314.267831 207.903885 314.830411 207.341305 
C 315.392992 206.778724 315.709091 206.015594 315.709091 205.219984 
C 315.709091 204.424375 315.392992 203.661245 314.830411 203.098664 
C 314.267831 202.536083 313.5047 202.219984 312.709091 202.219984 
C 311.913482 202.219984 311.150351 202.536083 310.587771 203.098664 
C 310.02519 203.661245 309.709091 204.424375 309.709091 205.219984 
C 309.709091 206.015594 310.02519 206.778724 310.587771 207.341305 
C 311.150351 207.903885 311.913482 208.219984 312.709091 208.219984 
z
" style="fill:#4c72b0;stroke:#ffffff;stroke-width:0.48;"/>
    <path clip-path="url(#p97916bd57e)" d="M 343.145455 229.455471 
C 343.941064 229.455471 344.704194 229.139372 345.266775 228.576792 
C 345.829356 228.014211 346.145455 227.25108 346.145455 226.455471 
C 346.145455 225.659862 345.829356 224.896732 345.266775 224.334151 
C 344.704194 223.77157 343.941064 223.455471 343.145455 223.455471 
C 342.349845 223.455471 341.586715 223.77157 341.024134 224.334151 
C 340.461553 224.896732 340.145455 225.659862 340.145455 226.455471 
C 340.145455 227.25108 340.461553 228.014211 341.024134 228.576792 
C 341.586715 229.139372 342.349845 229.455471 343.145455 229.455471 
z
" style="fill:#4c72b0;stroke:#ffffff;stroke-width:0.48;"/>
    <path clip-path="url(#p97916bd57e)" d="M 373.581818 245.116364 
C 374.377427 245.116364 375.140558 244.800265 375.703139 244.237684 
C 376.265719 243.675103 376.581818 242.911973 376.581818 242.116364 
C 376.581818 241.320754 376.265719 240.557624 375.703139 239.995043 
C 375.140558 239.432463 374.377427 239.116364 373.581818 239.116364 
C 372.786209 239.116364 372.023079 239.432463 371.460498 239.995043 
C 370.897917 240.557624 370.581818 241.320754 370.581818 242.116364 
C 370.581818 242.911973 370.897917 243.675103 371.460498 244.237684 
C 372.023079 244.800265 372.786209 245.116364 373.581818 245.116364 
z
" style="fill:#4c72b0;stroke:#ffffff;stroke-width:0.48;"/>
    <path clip-path="url(#p97916bd57e)" d="M 67.718182 47.443636 
L 69.218182 45.943636 
L 70.718182 47.443636 
L 72.218182 45.943636 
L 70.718182 44.443636 
L 72.218182 42.943636 
L 70.718182 41.443636 
L 69.218182 42.943636 
L 67.718182 41.443636 
L 66.218182 42.943636 
L 67.718182 44.443636 
L 66.218182 45.943636 
z
" style="fill:#dd8452;stroke:#ffffff;stroke-width:0.48;"/>
    <path clip-path="url(#p97916bd57e)" d="M 98.154545 63.35908 
L 99.654545 61.85908 
L 101.154545 63.35908 
L 102.654545 61.85908 
L 101.154545 60.35908 
L 102.654545 58.85908 
L 101.154545 57.35908 
L 99.654545 58.85908 
L 98.154545 57.35908 
L 96.654545 58.85908 
L 98.154545 60.35908 
L 96.654545 61.85908 
z
" style="fill:#dd8452;stroke:#ffffff;stroke-width:0.48;"/>
    <path clip-path="url(#p97916bd57e)" d="M 128.590909 76.298866 
L 130.090909 74.798866 
L 131.590909 76.298866 
L 133.090909 74.798866 
L 131.590909 73.298866 
L 133.090909 71.798866 
L 131.590909 70.298866 
L 130.090909 71.798866 
L 128.590909 70.298866 
L 127.090909 71.798866 
L 128.590909 73.298866 
L 127.090909 74.798866 
z
" style="fill:#dd8452;stroke:#ffffff;stroke-width:0.48;"/>
    <path clip-path="url(#p97916bd57e)" d="M 159.027273 88.984999 
L 160.527273 87.484999 
L 162.027273 88.984999 
L 163.527273 87.484999 
L 162.027273 85.984999 
L 163.527273 84.484999 
L 162.027273 82.984999 
L 160.527273 84.484999 
L 159.027273 82.984999 
L 157.527273 84.484999 
L 159.027273 85.984999 
L 157.527273 87.484999 
z
" style="fill:#dd8452;stroke:#ffffff;stroke-width:0.48;"/>
    <path clip-path="url(#p97916bd57e)" d="M 189.463636 102.44757 
L 190.963636 100.94757 
L 192.463636 102.44757 
L 193.963636 100.94757 
L 192.463636 99.44757 
L 193.963636 97.94757 
L 192.463636 96.44757 
L 190.963636 97.94757 
L 189.463636 96.44757 
L 187.963636 97.94757 
L 189.463636 99.44757 
L 187.963636 100.94757 
z
" style="fill:#dd8452;stroke:#ffffff;stroke-width:0.48;"/>
    <path clip-path="url(#p97916bd57e)" d="M 219.9 113.244627 
L 221.4 111.744627 
L 222.9 113.244627 
L 224.4 111.744627 
L 222.9 110.244627 
L 224.4 108.744627 
L 222.9 107.244627 
L 221.4 108.744627 
L 219.9 107.244627 
L 218.4 108.744627 
L 219.9 110.244627 
L 218.4 111.744627 
z
" style="fill:#dd8452;stroke:#ffffff;stroke-width:0.48;"/>
    <path clip-path="url(#p97916bd57e)" d="M 250.336364 122.949682 
L 251.836364 121.449682 
L 253.336364 122.949682 
L 254.836364 121.449682 
L 253.336364 119.949682 
L 254.836364 118.449682 
L 253.336364 116.949682 
L 251.836364 118.449682 
L 250.336364 116.949682 
L 248.836364 118.449682 
L 250.336364 119.949682 
L 248.836364 121.449682 
z
" style="fill:#dd8452;stroke:#ffffff;stroke-width:0.48;"/>
    <path clip-path="url(#p97916bd57e)" d="M 280.772727 131.788874 
L 282.272727 130.288874 
L 283.772727 131.788874 
L 285.272727 130.288874 
L 283.772727 128.788874 
L 285.272727 127.288874 
L 283.772727 125.788874 
L 282.272727 127.288874 
L 280.772727 125.788874 
L 279.272727 127.288874 
L 280.772727 128.788874 
L 279.272727 130.288874 
z
" style="fill:#dd8452;stroke:#ffffff;stroke-width:0.48;"/>
    <path clip-path="url(#p97916bd57e)" d="M 311.209091 138.602275 
L 312.709091 137.102275 
L 314.209091 138.602275 
L 315.709091 137.102275 
L 314.209091 135.602275 
L 315.709091 134.102275 
L 314.209091 132.602275 
L 312.709091 134.102275 
L 311.209091 132.602275 
L 309.709091 134.102275 
L 311.209091 135.602275 
L 309.709091 137.102275 
z
" style="fill:#dd8452;stroke:#ffffff;stroke-width:0.48;"/>
    <path clip-path="url(#p97916bd57e)" d="M 341.645455 146.306473 
L 343.145455 144.806473 
L 344.645455 146.306473 
L 346.145455 144.806473 
L 344.645455 143.306473 
L 346.145455 141.806473 
L 344.645455 140.306473 
L 343.145455 141.806473 
L 341.645455 140.306473 
L 340.145455 141.806473 
L 341.645455 143.306473 
L 340.145455 144.806473 
z
" style="fill:#dd8452;stroke:#ffffff;stroke-width:0.48;"/>
    <path clip-path="url(#p97916bd57e)" d="M 372.081818 155.756155 
L 373.581818 154.256155 
L 375.081818 155.756155 
L 376.581818 154.256155 
L 375.081818 152.756155 
L 376.581818 151.256155 
L 375.081818 149.756155 
L 373.581818 151.256155 
L 372.081818 149.756155 
L 370.581818 151.256155 
L 372.081818 152.756155 
L 370.581818 154.256155 
z
" style="fill:#dd8452;stroke:#ffffff;stroke-width:0.48;"/>
    <path clip-path="url(#p97916bd57e)" d="M 67.096861 42.322316 
L 67.096861 46.564957 
L 71.339502 46.564957 
L 71.339502 42.322316 
z
" style="fill:#55a868;stroke:#ffffff;stroke-width:0.48;"/>
    <path clip-path="url(#p97916bd57e)" d="M 97.533225 59.480737 
L 97.533225 63.723378 
L 101.775866 63.723378 
L 101.775866 59.480737 
z
" style="fill:#55a868;stroke:#ffffff;stroke-width:0.48;"/>
    <path clip-path="url(#p97916bd57e)" d="M 127.969589 73.349251 
L 127.969589 77.591892 
L 132.212229 77.591892 
L 132.212229 73.349251 
z
" style="fill:#55a868;stroke:#ffffff;stroke-width:0.48;"/>
    <path clip-path="url(#p97916bd57e)" d="M 158.405952 86.429083 
L 158.405952 90.671724 
L 162.648593 90.671724 
L 162.648593 86.429083 
z
" style="fill:#55a868;stroke:#ffffff;stroke-width:0.48;"/>
    <path clip-path="url(#p97916bd57e)" d="M 188.842316 100.645846 
L 188.842316 104.888487 
L 193.084957 104.888487 
L 193.084957 100.645846 
z
" style="fill:#55a868;stroke:#ffffff;stroke-width:0.48;"/>
    <path clip-path="url(#p97916bd57e)" d="M 219.27868 112.301953 
L 219.27868 116.544594 
L 223.52132 116.544594 
L 223.52132 112.301953 
z
" style="fill:#55a868;stroke:#ffffff;stroke-width:0.48;"/>
    <path clip-path="url(#p97916bd57e)" d="M 249.715043 122.944041 
L 249.715043 127.186681 
L 253.957684 127.186681 
L 253.957684 122.944041 
z
" style="fill:#55a868;stroke:#ffffff;stroke-width:0.48;"/>
    <path clip-path="url(#p97916bd57e)" d="M 280.151407 132.408226 
L 280.151407 136.650867 
L 284.394048 136.650867 
L 284.394048 132.408226 
z
" style="fill:#55a868;stroke:#ffffff;stroke-width:0.48;"/>
    <path clip-path="url(#p97916bd57e)" d="M 310.587771 139.506365 
L 310.587771 143.749006 
L 314.830411 143.749006 
L 314.830411 139.506365 
z
" style="fill:#55a868;stroke:#ffffff;stroke-width:0.48;"/>
    <path clip-path="url(#p97916bd57e)" d="M 341.024134 147.782406 
L 341.024134 152.025047 
L 345.266775 152.025047 
L 345.266775 147.782406 
z
" style="fill:#55a868;stroke:#ffffff;stroke-width:0.48;"/>
    <path clip-path="url(#p97916bd57e)" d="M 371.460498 157.779208 
L 371.460498 162.021848 
L 375.703139 162.021848 
L 375.703139 157.779208 
z
" style="fill:#55a868;stroke:#ffffff;stroke-width:0.48;"/>
    <path clip-path="url(#p97916bd57e)" d="M 68.218182 47.443636 
L 70.218182 47.443636 
L 70.218182 45.443636 
L 72.218182 45.443636 
L 72.218182 43.443636 
L 70.218182 43.443636 
L 70.218182 41.443636 
L 68.218182 41.443636 
L 68.218182 43.443636 
L 66.218182 43.443636 
L 66.218182 45.443636 
L 68.218182 45.443636 
z
" style="fill:#c44e52;stroke:#ffffff;stroke-width:0.48;"/>
    <path clip-path="url(#p97916bd57e)" d="M 98.654545 69.650103 
L 100.654545 69.650103 
L 100.654545 67.650103 
L 102.654545 67.650103 
L 102.654545 65.650103 
L 100.654545 65.650103 
L 100.654545 63.650103 
L 98.654545 63.650103 
L 98.654545 65.650103 
L 96.654545 65.650103 
L 96.654545 67.650103 
L 98.654545 67.650103 
z
" style="fill:#c44e52;stroke:#ffffff;stroke-width:0.48;"/>
    <path clip-path="url(#p97916bd57e)" d="M 129.090909 86.822823 
L 131.090909 86.822823 
L 131.090909 84.822823 
L 133.090909 84.822823 
L 133.090909 82.822823 
L 131.090909 82.822823 
L 131.090909 80.822823 
L 129.090909 80.822823 
L 129.090909 82.822823 
L 127.090909 82.822823 
L 127.090909 84.822823 
L 129.090909 84.822823 
z
" style="fill:#c44e52;stroke:#ffffff;stroke-width:0.48;"/>
    <path clip-path="url(#p97916bd57e)" d="M 159.527273 103.128445 
L 161.527273 103.128445 
L 161.527273 101.128445 
L 163.527273 101.128445 
L 163.527273 99.128445 
L 161.527273 99.128445 
L 161.527273 97.128445 
L 159.527273 97.128445 
L 159.527273 99.128445 
L 157.527273 99.128445 
L 157.527273 101.128445 
L 159.527273 101.128445 
z
" style="fill:#c44e52;stroke:#ffffff;stroke-width:0.48;"/>
    <path clip-path="url(#p97916bd57e)" d="M 189.963636 116.413133 
L 191.963636 116.413133 
L 191.963636 114.413133 
L 193.963636 114.413133 
L 193.963636 112.413133 
L 191.963636 112.413133 
L 191.963636 110.413133 
L 189.963636 110.413133 
L 189.963636 112.413133 
L 187.963636 112.413133 
L 187.963636 114.413133 
L 189.963636 114.413133 
z
" style="fill:#c44e52;stroke:#ffffff;stroke-width:0.48;"/>
    <path clip-path="url(#p97916bd57e)" d="M 220.4 132.718755 
L 222.4 132.718755 
L 222.4 130.718755 
L 224.4 130.718755 
L 224.4 128.718755 
L 222.4 128.718755 
L 222.4 126.718755 
L 220.4 126.718755 
L 220.4 128.718755 
L 218.4 128.718755 
L 218.4 130.718755 
L 220.4 130.718755 
z
" style="fill:#c44e52;stroke:#ffffff;stroke-width:0.48;"/>
    <path clip-path="url(#p97916bd57e)" d="M 250.836364 146.970234 
L 252.836364 146.970234 
L 252.836364 144.970234 
L 254.836364 144.970234 
L 254.836364 142.970234 
L 252.836364 142.970234 
L 252.836364 140.970234 
L 250.836364 140.970234 
L 250.836364 142.970234 
L 248.836364 142.970234 
L 248.836364 144.970234 
L 250.836364 144.970234 
z
" style="fill:#c44e52;stroke:#ffffff;stroke-width:0.48;"/>
    <path clip-path="url(#p97916bd57e)" d="M 281.272727 157.034603 
L 283.272727 157.034603 
L 283.272727 155.034603 
L 285.272727 155.034603 
L 285.272727 153.034603 
L 283.272727 153.034603 
L 283.272727 151.034603 
L 281.272727 151.034603 
L 281.272727 153.034603 
L 279.272727 153.034603 
L 279.272727 155.034603 
L 281.272727 155.034603 
z
" style="fill:#c44e52;stroke:#ffffff;stroke-width:0.48;"/>
    <path clip-path="url(#p97916bd57e)" d="M 311.709091 165.900335 
L 313.709091 165.900335 
L 313.709091 163.900335 
L 315.709091 163.900335 
L 315.709091 161.900335 
L 313.709091 161.900335 
L 313.709091 159.900335 
L 311.709091 159.900335 
L 311.709091 161.900335 
L 309.709091 161.900335 
L 309.709091 163.900335 
L 311.709091 163.900335 
z
" style="fill:#c44e52;stroke:#ffffff;stroke-width:0.48;"/>
    <path clip-path="url(#p97916bd57e)" d="M 342.145455 176.810936 
L 344.145455 176.810936 
L 344.145455 174.810936 
L 346.145455 174.810936 
L 346.145455 172.810936 
L 344.145455 172.810936 
L 344.145455 170.810936 
L 342.145455 170.810936 
L 342.145455 172.810936 
L 340.145455 172.810936 
L 340.145455 174.810936 
L 342.145455 174.810936 
z
" style="fill:#c44e52;stroke:#ffffff;stroke-width:0.48;"/>
    <path clip-path="url(#p97916bd57e)" d="M 372.581818 184.554542 
L 374.581818 184.554542 
L 374.581818 182.554542 
L 376.581818 182.554542 
L 376.581818 180.554542 
L 374.581818 180.554542 
L 374.581818 178.554542 
L 372.581818 178.554542 
L 372.581818 180.554542 
L 370.581818 180.554542 
L 370.581818 182.554542 
L 372.581818 182.554542 
z
" style="fill:#c44e52;stroke:#ffffff;stroke-width:0.48;"/>
   </g>
   <g id="PathCollection_2"/>
   <g id="PathCollection_3"/>
   <g id="PathCollection_4"/>
   <g id="PathCollection_5"/>
   <g id="patch_3">
    <path d="M 54 252 
L 54 34.56 
" style="fill:none;stroke:#cccccc;stroke-linecap:square;stroke-linejoin:miter;stroke-width:1.25;"/>
   </g>
   <g id="patch_4">
    <path d="M 388.8 252 
L 388.8 34.56 
" style="fill:none;stroke:#cccccc;stroke-linecap:square;stroke-linejoin:miter;stroke-width:1.25;"/>
   </g>
   <g id="patch_5">
    <path d="M 54 252 
L 388.8 252 
" style="fill:none;stroke:#cccccc;stroke-linecap:square;stroke-linejoin:miter;stroke-width:1.25;"/>
   </g>
   <g id="patch_6">
    <path d="M 54 34.56 
L 388.8 34.56 
" style="fill:none;stroke:#cccccc;stroke-linecap:square;stroke-linejoin:miter;stroke-width:1.25;"/>
   </g>
   <g id="legend_1">
    <g id="patch_7">
     <path d="M 253.469063 107.94375 
L 381.1 107.94375 
Q 383.3 107.94375 383.3 105.74375 
L 383.3 42.26 
Q 383.3 40.06 381.1 40.06 
L 253.469063 40.06 
Q 251.269063 40.06 251.269063 42.26 
L 251.269063 105.74375 
Q 251.269063 107.94375 253.469063 107.94375 
z
" style="fill:#ffffff;opacity:0.8;stroke:#cccccc;stroke-linejoin:miter;"/>
    </g>
    <g id="PathCollection_6">
     <defs>
      <path d="M 0 3 
C 0.795609 3 1.55874 2.683901 2.12132 2.12132 
C 2.683901 1.55874 3 0.795609 3 0 
C 3 -0.795609 2.683901 -1.55874 2.12132 -2.12132 
C 1.55874 -2.683901 0.795609 -3 0 -3 
C -0.795609 -3 -1.55874 -2.683901 -2.12132 -2.12132 
C -2.683901 -1.55874 -3 -0.795609 -3 0 
C -3 0.795609 -2.683901 1.55874 -2.12132 2.12132 
C -1.55874 2.683901 -0.795609 3 0 3 
z
" id="m0f198f5355" style="stroke:#4c72b0;"/>
     </defs>
     <g>
      <use style="fill:#4c72b0;stroke:#4c72b0;" x="266.669062" xlink:href="#m0f198f5355" y="49.930781"/>
     </g>
    </g>
    <g id="text_21">
     <!-- Saliency Map -->
     <defs>
      <path d="M 53.515625 70.515625 
L 53.515625 60.890625 
Q 47.90625 63.578125 42.921875 64.890625 
Q 37.9375 66.21875 33.296875 66.21875 
Q 25.25 66.21875 20.875 63.09375 
Q 16.5 59.96875 16.5 54.203125 
Q 16.5 49.359375 19.40625 46.890625 
Q 22.3125 44.4375 30.421875 42.921875 
L 36.375 41.703125 
Q 47.40625 39.59375 52.65625 34.296875 
Q 57.90625 29 57.90625 20.125 
Q 57.90625 9.515625 50.796875 4.046875 
Q 43.703125 -1.421875 29.984375 -1.421875 
Q 24.8125 -1.421875 18.96875 -0.25 
Q 13.140625 0.921875 6.890625 3.21875 
L 6.890625 13.375 
Q 12.890625 10.015625 18.65625 8.296875 
Q 24.421875 6.59375 29.984375 6.59375 
Q 38.421875 6.59375 43.015625 9.90625 
Q 47.609375 13.234375 47.609375 19.390625 
Q 47.609375 24.75 44.3125 27.78125 
Q 41.015625 30.8125 33.5 32.328125 
L 27.484375 33.5 
Q 16.453125 35.6875 11.515625 40.375 
Q 6.59375 45.0625 6.59375 53.421875 
Q 6.59375 63.09375 13.40625 68.65625 
Q 20.21875 74.21875 32.171875 74.21875 
Q 37.3125 74.21875 42.625 73.28125 
Q 47.953125 72.359375 53.515625 70.515625 
z
" id="DejaVuSans-83"/>
      <path d="M 9.8125 72.90625 
L 24.515625 72.90625 
L 43.109375 23.296875 
L 61.8125 72.90625 
L 76.515625 72.90625 
L 76.515625 0 
L 66.890625 0 
L 66.890625 64.015625 
L 48.09375 14.015625 
L 38.1875 14.015625 
L 19.390625 64.015625 
L 19.390625 0 
L 9.8125 0 
z
" id="DejaVuSans-77"/>
      <path d="M 18.109375 8.203125 
L 18.109375 -20.796875 
L 9.078125 -20.796875 
L 9.078125 54.6875 
L 18.109375 54.6875 
L 18.109375 46.390625 
Q 20.953125 51.265625 25.265625 53.625 
Q 29.59375 56 35.59375 56 
Q 45.5625 56 51.78125 48.09375 
Q 58.015625 40.1875 58.015625 27.296875 
Q 58.015625 14.40625 51.78125 6.484375 
Q 45.5625 -1.421875 35.59375 -1.421875 
Q 29.59375 -1.421875 25.265625 0.953125 
Q 20.953125 3.328125 18.109375 8.203125 
z
M 48.6875 27.296875 
Q 48.6875 37.203125 44.609375 42.84375 
Q 40.53125 48.484375 33.40625 48.484375 
Q 26.265625 48.484375 22.1875 42.84375 
Q 18.109375 37.203125 18.109375 27.296875 
Q 18.109375 17.390625 22.1875 11.75 
Q 26.265625 6.109375 33.40625 6.109375 
Q 40.53125 6.109375 44.609375 11.75 
Q 48.6875 17.390625 48.6875 27.296875 
z
" id="DejaVuSans-112"/>
     </defs>
     <g style="fill:#262626;" transform="translate(286.469063 52.818281)scale(0.11 -0.11)">
      <use xlink:href="#DejaVuSans-83"/>
      <use x="63.476562" xlink:href="#DejaVuSans-97"/>
      <use x="124.755859" xlink:href="#DejaVuSans-108"/>
      <use x="152.539062" xlink:href="#DejaVuSans-105"/>
      <use x="180.322266" xlink:href="#DejaVuSans-101"/>
      <use x="241.845703" xlink:href="#DejaVuSans-110"/>
      <use x="305.224609" xlink:href="#DejaVuSans-99"/>
      <use x="360.205078" xlink:href="#DejaVuSans-121"/>
      <use x="419.384766" xlink:href="#DejaVuSans-32"/>
      <use x="451.171875" xlink:href="#DejaVuSans-77"/>
      <use x="537.451172" xlink:href="#DejaVuSans-97"/>
      <use x="598.730469" xlink:href="#DejaVuSans-112"/>
     </g>
    </g>
    <g id="PathCollection_7">
     <defs>
      <path d="M -1.5 3 
L 0 1.5 
L 1.5 3 
L 3 1.5 
L 1.5 0 
L 3 -1.5 
L 1.5 -3 
L 0 -1.5 
L -1.5 -3 
L -3 -1.5 
L -1.5 0 
L -3 1.5 
z
" id="m9c14fca927" style="stroke:#dd8452;"/>
     </defs>
     <g>
      <use style="fill:#dd8452;stroke:#dd8452;" x="266.669062" xlink:href="#m9c14fca927" y="66.076719"/>
     </g>
    </g>
    <g id="text_22">
     <!-- GradCam -->
     <defs>
      <path d="M 59.515625 10.40625 
L 59.515625 29.984375 
L 43.40625 29.984375 
L 43.40625 38.09375 
L 69.28125 38.09375 
L 69.28125 6.78125 
Q 63.578125 2.734375 56.6875 0.65625 
Q 49.8125 -1.421875 42 -1.421875 
Q 24.90625 -1.421875 15.25 8.5625 
Q 5.609375 18.5625 5.609375 36.375 
Q 5.609375 54.25 15.25 64.234375 
Q 24.90625 74.21875 42 74.21875 
Q 49.125 74.21875 55.546875 72.453125 
Q 61.96875 70.703125 67.390625 67.28125 
L 67.390625 56.78125 
Q 61.921875 61.421875 55.765625 63.765625 
Q 49.609375 66.109375 42.828125 66.109375 
Q 29.4375 66.109375 22.71875 58.640625 
Q 16.015625 51.171875 16.015625 36.375 
Q 16.015625 21.625 22.71875 14.15625 
Q 29.4375 6.6875 42.828125 6.6875 
Q 48.046875 6.6875 52.140625 7.59375 
Q 56.25 8.5 59.515625 10.40625 
z
" id="DejaVuSans-71"/>
      <path d="M 45.40625 46.390625 
L 45.40625 75.984375 
L 54.390625 75.984375 
L 54.390625 0 
L 45.40625 0 
L 45.40625 8.203125 
Q 42.578125 3.328125 38.25 0.953125 
Q 33.9375 -1.421875 27.875 -1.421875 
Q 17.96875 -1.421875 11.734375 6.484375 
Q 5.515625 14.40625 5.515625 27.296875 
Q 5.515625 40.1875 11.734375 48.09375 
Q 17.96875 56 27.875 56 
Q 33.9375 56 38.25 53.625 
Q 42.578125 51.265625 45.40625 46.390625 
z
M 14.796875 27.296875 
Q 14.796875 17.390625 18.875 11.75 
Q 22.953125 6.109375 30.078125 6.109375 
Q 37.203125 6.109375 41.296875 11.75 
Q 45.40625 17.390625 45.40625 27.296875 
Q 45.40625 37.203125 41.296875 42.84375 
Q 37.203125 48.484375 30.078125 48.484375 
Q 22.953125 48.484375 18.875 42.84375 
Q 14.796875 37.203125 14.796875 27.296875 
z
" id="DejaVuSans-100"/>
      <path d="M 64.40625 67.28125 
L 64.40625 56.890625 
Q 59.421875 61.53125 53.78125 63.8125 
Q 48.140625 66.109375 41.796875 66.109375 
Q 29.296875 66.109375 22.65625 58.46875 
Q 16.015625 50.828125 16.015625 36.375 
Q 16.015625 21.96875 22.65625 14.328125 
Q 29.296875 6.6875 41.796875 6.6875 
Q 48.140625 6.6875 53.78125 8.984375 
Q 59.421875 11.28125 64.40625 15.921875 
L 64.40625 5.609375 
Q 59.234375 2.09375 53.4375 0.328125 
Q 47.65625 -1.421875 41.21875 -1.421875 
Q 24.65625 -1.421875 15.125 8.703125 
Q 5.609375 18.84375 5.609375 36.375 
Q 5.609375 53.953125 15.125 64.078125 
Q 24.65625 74.21875 41.21875 74.21875 
Q 47.75 74.21875 53.53125 72.484375 
Q 59.328125 70.75 64.40625 67.28125 
z
" id="DejaVuSans-67"/>
     </defs>
     <g style="fill:#262626;" transform="translate(286.469063 68.964219)scale(0.11 -0.11)">
      <use xlink:href="#DejaVuSans-71"/>
      <use x="77.490234" xlink:href="#DejaVuSans-114"/>
      <use x="118.603516" xlink:href="#DejaVuSans-97"/>
      <use x="179.882812" xlink:href="#DejaVuSans-100"/>
      <use x="243.359375" xlink:href="#DejaVuSans-67"/>
      <use x="313.183594" xlink:href="#DejaVuSans-97"/>
      <use x="374.462891" xlink:href="#DejaVuSans-109"/>
     </g>
    </g>
    <g id="PathCollection_8">
     <defs>
      <path d="M -2.12132 -2.12132 
L -2.12132 2.12132 
L 2.12132 2.12132 
L 2.12132 -2.12132 
z
" id="md9a69173fd" style="stroke:#55a868;"/>
     </defs>
     <g>
      <use style="fill:#55a868;stroke:#55a868;" x="266.669062" xlink:href="#md9a69173fd" y="82.222656"/>
     </g>
    </g>
    <g id="text_23">
     <!-- GradCam Cutted -->
     <g style="fill:#262626;" transform="translate(286.469063 85.110156)scale(0.11 -0.11)">
      <use xlink:href="#DejaVuSans-71"/>
      <use x="77.490234" xlink:href="#DejaVuSans-114"/>
      <use x="118.603516" xlink:href="#DejaVuSans-97"/>
      <use x="179.882812" xlink:href="#DejaVuSans-100"/>
      <use x="243.359375" xlink:href="#DejaVuSans-67"/>
      <use x="313.183594" xlink:href="#DejaVuSans-97"/>
      <use x="374.462891" xlink:href="#DejaVuSans-109"/>
      <use x="471.875" xlink:href="#DejaVuSans-32"/>
      <use x="503.662109" xlink:href="#DejaVuSans-67"/>
      <use x="573.486328" xlink:href="#DejaVuSans-117"/>
      <use x="636.865234" xlink:href="#DejaVuSans-116"/>
      <use x="676.074219" xlink:href="#DejaVuSans-116"/>
      <use x="715.283203" xlink:href="#DejaVuSans-101"/>
      <use x="776.806641" xlink:href="#DejaVuSans-100"/>
     </g>
    </g>
    <g id="PathCollection_9">
     <defs>
      <path d="M -1 3 
L 1 3 
L 1 1 
L 3 1 
L 3 -1 
L 1 -1 
L 1 -3 
L -1 -3 
L -1 -1 
L -3 -1 
L -3 1 
L -1 1 
z
" id="mace8280e5b" style="stroke:#c44e52;"/>
     </defs>
     <g>
      <use style="fill:#c44e52;stroke:#c44e52;" x="266.669062" xlink:href="#mace8280e5b" y="98.368594"/>
     </g>
    </g>
    <g id="text_24">
     <!-- GradCam++ -->
     <defs>
      <path d="M 46 62.703125 
L 46 35.5 
L 73.1875 35.5 
L 73.1875 27.203125 
L 46 27.203125 
L 46 0 
L 37.796875 0 
L 37.796875 27.203125 
L 10.59375 27.203125 
L 10.59375 35.5 
L 37.796875 35.5 
L 37.796875 62.703125 
z
" id="DejaVuSans-43"/>
     </defs>
     <g style="fill:#262626;" transform="translate(286.469063 101.256094)scale(0.11 -0.11)">
      <use xlink:href="#DejaVuSans-71"/>
      <use x="77.490234" xlink:href="#DejaVuSans-114"/>
      <use x="118.603516" xlink:href="#DejaVuSans-97"/>
      <use x="179.882812" xlink:href="#DejaVuSans-100"/>
      <use x="243.359375" xlink:href="#DejaVuSans-67"/>
      <use x="313.183594" xlink:href="#DejaVuSans-97"/>
      <use x="374.462891" xlink:href="#DejaVuSans-109"/>
      <use x="471.875" xlink:href="#DejaVuSans-43"/>
      <use x="555.664062" xlink:href="#DejaVuSans-43"/>
     </g>
    </g>
   </g>
  </g>
 </g>
 <defs>
  <clipPath id="p97916bd57e">
   <rect height="217.44" width="334.8" x="54" y="34.56"/>
  </clipPath>
 </defs>
</svg>
