<?xml version="1.0" encoding="utf-8" standalone="no"?>
<!DOCTYPE svg PUBLIC "-//W3C//DTD SVG 1.1//EN"
  "http://www.w3.org/Graphics/SVG/1.1/DTD/svg11.dtd">
<!-- Created with matplotlib (https://matplotlib.org/) -->
<svg height="364.739687pt" version="1.1" viewBox="0 0 364.212187 364.739687" width="364.212187pt" xmlns="http://www.w3.org/2000/svg" xmlns:xlink="http://www.w3.org/1999/xlink">
 <defs>
  <style type="text/css">
*{stroke-linecap:butt;stroke-linejoin:round;}
  </style>
 </defs>
 <g id="figure_1">
  <g id="patch_1">
   <path d="M 0 364.739687 
L 364.212187 364.739687 
L 364.212187 -0 
L 0 -0 
z
" style="fill:#ffffff;"/>
  </g>
  <g id="axes_1">
   <g id="patch_2">
    <path d="M 49.807187 321.78 
L 357.012187 321.78 
L 357.012187 7.2 
L 49.807187 7.2 
z
" style="fill:#ffffff;"/>
   </g>
   <g id="matplotlib.axis_1">
    <g id="xtick_1">
     <g id="line2d_1">
      <path clip-path="url(#p3249170f16)" d="M 87.174175 321.78 
L 87.174175 7.2 
" style="fill:none;stroke:#cccccc;stroke-linecap:round;"/>
     </g>
     <g id="text_1">
      <!-- −75 -->
      <defs>
       <path d="M 10.59375 35.5 
L 73.1875 35.5 
L 73.1875 27.203125 
L 10.59375 27.203125 
z
" id="DejaVuSans-8722"/>
       <path d="M 8.203125 72.90625 
L 55.078125 72.90625 
L 55.078125 68.703125 
L 28.609375 0 
L 18.3125 0 
L 43.21875 64.59375 
L 8.203125 64.59375 
z
" id="DejaVuSans-55"/>
       <path d="M 10.796875 72.90625 
L 49.515625 72.90625 
L 49.515625 64.59375 
L 19.828125 64.59375 
L 19.828125 46.734375 
Q 21.96875 47.46875 24.109375 47.828125 
Q 26.265625 48.1875 28.421875 48.1875 
Q 40.625 48.1875 47.75 41.5 
Q 54.890625 34.8125 54.890625 23.390625 
Q 54.890625 11.625 47.5625 5.09375 
Q 40.234375 -1.421875 26.90625 -1.421875 
Q 22.3125 -1.421875 17.546875 -0.640625 
Q 12.796875 0.140625 7.71875 1.703125 
L 7.71875 11.625 
Q 12.109375 9.234375 16.796875 8.0625 
Q 21.484375 6.890625 26.703125 6.890625 
Q 35.15625 6.890625 40.078125 11.328125 
Q 45.015625 15.765625 45.015625 23.390625 
Q 45.015625 31 40.078125 35.4375 
Q 35.15625 39.890625 26.703125 39.890625 
Q 22.75 39.890625 18.8125 39.015625 
Q 14.890625 38.140625 10.796875 36.28125 
z
" id="DejaVuSans-53"/>
      </defs>
      <g style="fill:#262626;" transform="translate(75.566596 339.638281)scale(0.11 -0.11)">
       <use xlink:href="#DejaVuSans-8722"/>
       <use x="83.789062" xlink:href="#DejaVuSans-55"/>
       <use x="147.412109" xlink:href="#DejaVuSans-53"/>
      </g>
     </g>
    </g>
    <g id="xtick_2">
     <g id="line2d_2">
      <path clip-path="url(#p3249170f16)" d="M 126.17938 321.78 
L 126.17938 7.2 
" style="fill:none;stroke:#cccccc;stroke-linecap:round;"/>
     </g>
     <g id="text_2">
      <!-- −50 -->
      <defs>
       <path d="M 31.78125 66.40625 
Q 24.171875 66.40625 20.328125 58.90625 
Q 16.5 51.421875 16.5 36.375 
Q 16.5 21.390625 20.328125 13.890625 
Q 24.171875 6.390625 31.78125 6.390625 
Q 39.453125 6.390625 43.28125 13.890625 
Q 47.125 21.390625 47.125 36.375 
Q 47.125 51.421875 43.28125 58.90625 
Q 39.453125 66.40625 31.78125 66.40625 
z
M 31.78125 74.21875 
Q 44.046875 74.21875 50.515625 64.515625 
Q 56.984375 54.828125 56.984375 36.375 
Q 56.984375 17.96875 50.515625 8.265625 
Q 44.046875 -1.421875 31.78125 -1.421875 
Q 19.53125 -1.421875 13.0625 8.265625 
Q 6.59375 17.96875 6.59375 36.375 
Q 6.59375 54.828125 13.0625 64.515625 
Q 19.53125 74.21875 31.78125 74.21875 
z
" id="DejaVuSans-48"/>
      </defs>
      <g style="fill:#262626;" transform="translate(114.571802 339.638281)scale(0.11 -0.11)">
       <use xlink:href="#DejaVuSans-8722"/>
       <use x="83.789062" xlink:href="#DejaVuSans-53"/>
       <use x="147.412109" xlink:href="#DejaVuSans-48"/>
      </g>
     </g>
    </g>
    <g id="xtick_3">
     <g id="line2d_3">
      <path clip-path="url(#p3249170f16)" d="M 165.184586 321.78 
L 165.184586 7.2 
" style="fill:none;stroke:#cccccc;stroke-linecap:round;"/>
     </g>
     <g id="text_3">
      <!-- −25 -->
      <defs>
       <path d="M 19.1875 8.296875 
L 53.609375 8.296875 
L 53.609375 0 
L 7.328125 0 
L 7.328125 8.296875 
Q 12.9375 14.109375 22.625 23.890625 
Q 32.328125 33.6875 34.8125 36.53125 
Q 39.546875 41.84375 41.421875 45.53125 
Q 43.3125 49.21875 43.3125 52.78125 
Q 43.3125 58.59375 39.234375 62.25 
Q 35.15625 65.921875 28.609375 65.921875 
Q 23.96875 65.921875 18.8125 64.3125 
Q 13.671875 62.703125 7.8125 59.421875 
L 7.8125 69.390625 
Q 13.765625 71.78125 18.9375 73 
Q 24.125 74.21875 28.421875 74.21875 
Q 39.75 74.21875 46.484375 68.546875 
Q 53.21875 62.890625 53.21875 53.421875 
Q 53.21875 48.921875 51.53125 44.890625 
Q 49.859375 40.875 45.40625 35.40625 
Q 44.1875 33.984375 37.640625 27.21875 
Q 31.109375 20.453125 19.1875 8.296875 
z
" id="DejaVuSans-50"/>
      </defs>
      <g style="fill:#262626;" transform="translate(153.577008 339.638281)scale(0.11 -0.11)">
       <use xlink:href="#DejaVuSans-8722"/>
       <use x="83.789062" xlink:href="#DejaVuSans-50"/>
       <use x="147.412109" xlink:href="#DejaVuSans-53"/>
      </g>
     </g>
    </g>
    <g id="xtick_4">
     <g id="line2d_4">
      <path clip-path="url(#p3249170f16)" d="M 204.189792 321.78 
L 204.189792 7.2 
" style="fill:none;stroke:#cccccc;stroke-linecap:round;"/>
     </g>
     <g id="text_4">
      <!-- 0 -->
      <g style="fill:#262626;" transform="translate(200.690417 339.638281)scale(0.11 -0.11)">
       <use xlink:href="#DejaVuSans-48"/>
      </g>
     </g>
    </g>
    <g id="xtick_5">
     <g id="line2d_5">
      <path clip-path="url(#p3249170f16)" d="M 243.194997 321.78 
L 243.194997 7.2 
" style="fill:none;stroke:#cccccc;stroke-linecap:round;"/>
     </g>
     <g id="text_5">
      <!-- 25 -->
      <g style="fill:#262626;" transform="translate(236.196247 339.638281)scale(0.11 -0.11)">
       <use xlink:href="#DejaVuSans-50"/>
       <use x="63.623047" xlink:href="#DejaVuSans-53"/>
      </g>
     </g>
    </g>
    <g id="xtick_6">
     <g id="line2d_6">
      <path clip-path="url(#p3249170f16)" d="M 282.200203 321.78 
L 282.200203 7.2 
" style="fill:none;stroke:#cccccc;stroke-linecap:round;"/>
     </g>
     <g id="text_6">
      <!-- 50 -->
      <g style="fill:#262626;" transform="translate(275.201453 339.638281)scale(0.11 -0.11)">
       <use xlink:href="#DejaVuSans-53"/>
       <use x="63.623047" xlink:href="#DejaVuSans-48"/>
      </g>
     </g>
    </g>
    <g id="xtick_7">
     <g id="line2d_7">
      <path clip-path="url(#p3249170f16)" d="M 321.205409 321.78 
L 321.205409 7.2 
" style="fill:none;stroke:#cccccc;stroke-linecap:round;"/>
     </g>
     <g id="text_7">
      <!-- 75 -->
      <g style="fill:#262626;" transform="translate(314.206659 339.638281)scale(0.11 -0.11)">
       <use xlink:href="#DejaVuSans-55"/>
       <use x="63.623047" xlink:href="#DejaVuSans-53"/>
      </g>
     </g>
    </g>
    <g id="text_8">
     <!-- Grad Rotation Z-Achse -->
     <defs>
      <path d="M 59.515625 10.40625 
L 59.515625 29.984375 
L 43.40625 29.984375 
L 43.40625 38.09375 
L 69.28125 38.09375 
L 69.28125 6.78125 
Q 63.578125 2.734375 56.6875 0.65625 
Q 49.8125 -1.421875 42 -1.421875 
Q 24.90625 -1.421875 15.25 8.5625 
Q 5.609375 18.5625 5.609375 36.375 
Q 5.609375 54.25 15.25 64.234375 
Q 24.90625 74.21875 42 74.21875 
Q 49.125 74.21875 55.546875 72.453125 
Q 61.96875 70.703125 67.390625 67.28125 
L 67.390625 56.78125 
Q 61.921875 61.421875 55.765625 63.765625 
Q 49.609375 66.109375 42.828125 66.109375 
Q 29.4375 66.109375 22.71875 58.640625 
Q 16.015625 51.171875 16.015625 36.375 
Q 16.015625 21.625 22.71875 14.15625 
Q 29.4375 6.6875 42.828125 6.6875 
Q 48.046875 6.6875 52.140625 7.59375 
Q 56.25 8.5 59.515625 10.40625 
z
" id="DejaVuSans-71"/>
      <path d="M 41.109375 46.296875 
Q 39.59375 47.171875 37.8125 47.578125 
Q 36.03125 48 33.890625 48 
Q 26.265625 48 22.1875 43.046875 
Q 18.109375 38.09375 18.109375 28.8125 
L 18.109375 0 
L 9.078125 0 
L 9.078125 54.6875 
L 18.109375 54.6875 
L 18.109375 46.1875 
Q 20.953125 51.171875 25.484375 53.578125 
Q 30.03125 56 36.53125 56 
Q 37.453125 56 38.578125 55.875 
Q 39.703125 55.765625 41.0625 55.515625 
z
" id="DejaVuSans-114"/>
      <path d="M 34.28125 27.484375 
Q 23.390625 27.484375 19.1875 25 
Q 14.984375 22.515625 14.984375 16.5 
Q 14.984375 11.71875 18.140625 8.90625 
Q 21.296875 6.109375 26.703125 6.109375 
Q 34.1875 6.109375 38.703125 11.40625 
Q 43.21875 16.703125 43.21875 25.484375 
L 43.21875 27.484375 
z
M 52.203125 31.203125 
L 52.203125 0 
L 43.21875 0 
L 43.21875 8.296875 
Q 40.140625 3.328125 35.546875 0.953125 
Q 30.953125 -1.421875 24.3125 -1.421875 
Q 15.921875 -1.421875 10.953125 3.296875 
Q 6 8.015625 6 15.921875 
Q 6 25.140625 12.171875 29.828125 
Q 18.359375 34.515625 30.609375 34.515625 
L 43.21875 34.515625 
L 43.21875 35.40625 
Q 43.21875 41.609375 39.140625 45 
Q 35.0625 48.390625 27.6875 48.390625 
Q 23 48.390625 18.546875 47.265625 
Q 14.109375 46.140625 10.015625 43.890625 
L 10.015625 52.203125 
Q 14.9375 54.109375 19.578125 55.046875 
Q 24.21875 56 28.609375 56 
Q 40.484375 56 46.34375 49.84375 
Q 52.203125 43.703125 52.203125 31.203125 
z
" id="DejaVuSans-97"/>
      <path d="M 45.40625 46.390625 
L 45.40625 75.984375 
L 54.390625 75.984375 
L 54.390625 0 
L 45.40625 0 
L 45.40625 8.203125 
Q 42.578125 3.328125 38.25 0.953125 
Q 33.9375 -1.421875 27.875 -1.421875 
Q 17.96875 -1.421875 11.734375 6.484375 
Q 5.515625 14.40625 5.515625 27.296875 
Q 5.515625 40.1875 11.734375 48.09375 
Q 17.96875 56 27.875 56 
Q 33.9375 56 38.25 53.625 
Q 42.578125 51.265625 45.40625 46.390625 
z
M 14.796875 27.296875 
Q 14.796875 17.390625 18.875 11.75 
Q 22.953125 6.109375 30.078125 6.109375 
Q 37.203125 6.109375 41.296875 11.75 
Q 45.40625 17.390625 45.40625 27.296875 
Q 45.40625 37.203125 41.296875 42.84375 
Q 37.203125 48.484375 30.078125 48.484375 
Q 22.953125 48.484375 18.875 42.84375 
Q 14.796875 37.203125 14.796875 27.296875 
z
" id="DejaVuSans-100"/>
      <path id="DejaVuSans-32"/>
      <path d="M 44.390625 34.1875 
Q 47.5625 33.109375 50.5625 29.59375 
Q 53.5625 26.078125 56.59375 19.921875 
L 66.609375 0 
L 56 0 
L 46.6875 18.703125 
Q 43.0625 26.03125 39.671875 28.421875 
Q 36.28125 30.8125 30.421875 30.8125 
L 19.671875 30.8125 
L 19.671875 0 
L 9.8125 0 
L 9.8125 72.90625 
L 32.078125 72.90625 
Q 44.578125 72.90625 50.734375 67.671875 
Q 56.890625 62.453125 56.890625 51.90625 
Q 56.890625 45.015625 53.6875 40.46875 
Q 50.484375 35.9375 44.390625 34.1875 
z
M 19.671875 64.796875 
L 19.671875 38.921875 
L 32.078125 38.921875 
Q 39.203125 38.921875 42.84375 42.21875 
Q 46.484375 45.515625 46.484375 51.90625 
Q 46.484375 58.296875 42.84375 61.546875 
Q 39.203125 64.796875 32.078125 64.796875 
z
" id="DejaVuSans-82"/>
      <path d="M 30.609375 48.390625 
Q 23.390625 48.390625 19.1875 42.75 
Q 14.984375 37.109375 14.984375 27.296875 
Q 14.984375 17.484375 19.15625 11.84375 
Q 23.34375 6.203125 30.609375 6.203125 
Q 37.796875 6.203125 41.984375 11.859375 
Q 46.1875 17.53125 46.1875 27.296875 
Q 46.1875 37.015625 41.984375 42.703125 
Q 37.796875 48.390625 30.609375 48.390625 
z
M 30.609375 56 
Q 42.328125 56 49.015625 48.375 
Q 55.71875 40.765625 55.71875 27.296875 
Q 55.71875 13.875 49.015625 6.21875 
Q 42.328125 -1.421875 30.609375 -1.421875 
Q 18.84375 -1.421875 12.171875 6.21875 
Q 5.515625 13.875 5.515625 27.296875 
Q 5.515625 40.765625 12.171875 48.375 
Q 18.84375 56 30.609375 56 
z
" id="DejaVuSans-111"/>
      <path d="M 18.3125 70.21875 
L 18.3125 54.6875 
L 36.8125 54.6875 
L 36.8125 47.703125 
L 18.3125 47.703125 
L 18.3125 18.015625 
Q 18.3125 11.328125 20.140625 9.421875 
Q 21.96875 7.515625 27.59375 7.515625 
L 36.8125 7.515625 
L 36.8125 0 
L 27.59375 0 
Q 17.1875 0 13.234375 3.875 
Q 9.28125 7.765625 9.28125 18.015625 
L 9.28125 47.703125 
L 2.6875 47.703125 
L 2.6875 54.6875 
L 9.28125 54.6875 
L 9.28125 70.21875 
z
" id="DejaVuSans-116"/>
      <path d="M 9.421875 54.6875 
L 18.40625 54.6875 
L 18.40625 0 
L 9.421875 0 
z
M 9.421875 75.984375 
L 18.40625 75.984375 
L 18.40625 64.59375 
L 9.421875 64.59375 
z
" id="DejaVuSans-105"/>
      <path d="M 54.890625 33.015625 
L 54.890625 0 
L 45.90625 0 
L 45.90625 32.71875 
Q 45.90625 40.484375 42.875 44.328125 
Q 39.84375 48.1875 33.796875 48.1875 
Q 26.515625 48.1875 22.3125 43.546875 
Q 18.109375 38.921875 18.109375 30.90625 
L 18.109375 0 
L 9.078125 0 
L 9.078125 54.6875 
L 18.109375 54.6875 
L 18.109375 46.1875 
Q 21.34375 51.125 25.703125 53.5625 
Q 30.078125 56 35.796875 56 
Q 45.21875 56 50.046875 50.171875 
Q 54.890625 44.34375 54.890625 33.015625 
z
" id="DejaVuSans-110"/>
      <path d="M 5.609375 72.90625 
L 62.890625 72.90625 
L 62.890625 65.375 
L 16.796875 8.296875 
L 64.015625 8.296875 
L 64.015625 0 
L 4.5 0 
L 4.5 7.515625 
L 50.59375 64.59375 
L 5.609375 64.59375 
z
" id="DejaVuSans-90"/>
      <path d="M 4.890625 31.390625 
L 31.203125 31.390625 
L 31.203125 23.390625 
L 4.890625 23.390625 
z
" id="DejaVuSans-45"/>
      <path d="M 34.1875 63.1875 
L 20.796875 26.90625 
L 47.609375 26.90625 
z
M 28.609375 72.90625 
L 39.796875 72.90625 
L 67.578125 0 
L 57.328125 0 
L 50.6875 18.703125 
L 17.828125 18.703125 
L 11.1875 0 
L 0.78125 0 
z
" id="DejaVuSans-65"/>
      <path d="M 48.78125 52.59375 
L 48.78125 44.1875 
Q 44.96875 46.296875 41.140625 47.34375 
Q 37.3125 48.390625 33.40625 48.390625 
Q 24.65625 48.390625 19.8125 42.84375 
Q 14.984375 37.3125 14.984375 27.296875 
Q 14.984375 17.28125 19.8125 11.734375 
Q 24.65625 6.203125 33.40625 6.203125 
Q 37.3125 6.203125 41.140625 7.25 
Q 44.96875 8.296875 48.78125 10.40625 
L 48.78125 2.09375 
Q 45.015625 0.34375 40.984375 -0.53125 
Q 36.96875 -1.421875 32.421875 -1.421875 
Q 20.0625 -1.421875 12.78125 6.34375 
Q 5.515625 14.109375 5.515625 27.296875 
Q 5.515625 40.671875 12.859375 48.328125 
Q 20.21875 56 33.015625 56 
Q 37.15625 56 41.109375 55.140625 
Q 45.0625 54.296875 48.78125 52.59375 
z
" id="DejaVuSans-99"/>
      <path d="M 54.890625 33.015625 
L 54.890625 0 
L 45.90625 0 
L 45.90625 32.71875 
Q 45.90625 40.484375 42.875 44.328125 
Q 39.84375 48.1875 33.796875 48.1875 
Q 26.515625 48.1875 22.3125 43.546875 
Q 18.109375 38.921875 18.109375 30.90625 
L 18.109375 0 
L 9.078125 0 
L 9.078125 75.984375 
L 18.109375 75.984375 
L 18.109375 46.1875 
Q 21.34375 51.125 25.703125 53.5625 
Q 30.078125 56 35.796875 56 
Q 45.21875 56 50.046875 50.171875 
Q 54.890625 44.34375 54.890625 33.015625 
z
" id="DejaVuSans-104"/>
      <path d="M 44.28125 53.078125 
L 44.28125 44.578125 
Q 40.484375 46.53125 36.375 47.5 
Q 32.28125 48.484375 27.875 48.484375 
Q 21.1875 48.484375 17.84375 46.4375 
Q 14.5 44.390625 14.5 40.28125 
Q 14.5 37.15625 16.890625 35.375 
Q 19.28125 33.59375 26.515625 31.984375 
L 29.59375 31.296875 
Q 39.15625 29.25 43.1875 25.515625 
Q 47.21875 21.78125 47.21875 15.09375 
Q 47.21875 7.46875 41.1875 3.015625 
Q 35.15625 -1.421875 24.609375 -1.421875 
Q 20.21875 -1.421875 15.453125 -0.5625 
Q 10.6875 0.296875 5.421875 2 
L 5.421875 11.28125 
Q 10.40625 8.6875 15.234375 7.390625 
Q 20.0625 6.109375 24.8125 6.109375 
Q 31.15625 6.109375 34.5625 8.28125 
Q 37.984375 10.453125 37.984375 14.40625 
Q 37.984375 18.0625 35.515625 20.015625 
Q 33.0625 21.96875 24.703125 23.78125 
L 21.578125 24.515625 
Q 13.234375 26.265625 9.515625 29.90625 
Q 5.8125 33.546875 5.8125 39.890625 
Q 5.8125 47.609375 11.28125 51.796875 
Q 16.75 56 26.8125 56 
Q 31.78125 56 36.171875 55.265625 
Q 40.578125 54.546875 44.28125 53.078125 
z
" id="DejaVuSans-115"/>
      <path d="M 56.203125 29.59375 
L 56.203125 25.203125 
L 14.890625 25.203125 
Q 15.484375 15.921875 20.484375 11.0625 
Q 25.484375 6.203125 34.421875 6.203125 
Q 39.59375 6.203125 44.453125 7.46875 
Q 49.3125 8.734375 54.109375 11.28125 
L 54.109375 2.78125 
Q 49.265625 0.734375 44.1875 -0.34375 
Q 39.109375 -1.421875 33.890625 -1.421875 
Q 20.796875 -1.421875 13.15625 6.1875 
Q 5.515625 13.8125 5.515625 26.8125 
Q 5.515625 40.234375 12.765625 48.109375 
Q 20.015625 56 32.328125 56 
Q 43.359375 56 49.78125 48.890625 
Q 56.203125 41.796875 56.203125 29.59375 
z
M 47.21875 32.234375 
Q 47.125 39.59375 43.09375 43.984375 
Q 39.0625 48.390625 32.421875 48.390625 
Q 24.90625 48.390625 20.390625 44.140625 
Q 15.875 39.890625 15.1875 32.171875 
z
" id="DejaVuSans-101"/>
     </defs>
     <g style="fill:#262626;" transform="translate(135.949062 355.044062)scale(0.12 -0.12)">
      <use xlink:href="#DejaVuSans-71"/>
      <use x="77.490234" xlink:href="#DejaVuSans-114"/>
      <use x="118.603516" xlink:href="#DejaVuSans-97"/>
      <use x="179.882812" xlink:href="#DejaVuSans-100"/>
      <use x="243.359375" xlink:href="#DejaVuSans-32"/>
      <use x="275.146484" xlink:href="#DejaVuSans-82"/>
      <use x="340.128906" xlink:href="#DejaVuSans-111"/>
      <use x="401.310547" xlink:href="#DejaVuSans-116"/>
      <use x="440.519531" xlink:href="#DejaVuSans-97"/>
      <use x="501.798828" xlink:href="#DejaVuSans-116"/>
      <use x="541.007812" xlink:href="#DejaVuSans-105"/>
      <use x="568.791016" xlink:href="#DejaVuSans-111"/>
      <use x="629.972656" xlink:href="#DejaVuSans-110"/>
      <use x="693.351562" xlink:href="#DejaVuSans-32"/>
      <use x="725.138672" xlink:href="#DejaVuSans-90"/>
      <use x="791.894531" xlink:href="#DejaVuSans-45"/>
      <use x="825.728516" xlink:href="#DejaVuSans-65"/>
      <use x="892.386719" xlink:href="#DejaVuSans-99"/>
      <use x="947.367188" xlink:href="#DejaVuSans-104"/>
      <use x="1010.746094" xlink:href="#DejaVuSans-115"/>
      <use x="1062.845703" xlink:href="#DejaVuSans-101"/>
     </g>
    </g>
   </g>
   <g id="matplotlib.axis_2">
    <g id="ytick_1">
     <g id="line2d_8">
      <path clip-path="url(#p3249170f16)" d="M 49.807187 309.087025 
L 357.012187 309.087025 
" style="fill:none;stroke:#cccccc;stroke-linecap:round;"/>
     </g>
     <g id="text_9">
      <!-- 0.0 -->
      <defs>
       <path d="M 10.6875 12.40625 
L 21 12.40625 
L 21 0 
L 10.6875 0 
z
" id="DejaVuSans-46"/>
      </defs>
      <g style="fill:#262626;" transform="translate(22.81375 313.266166)scale(0.11 -0.11)">
       <use xlink:href="#DejaVuSans-48"/>
       <use x="63.623047" xlink:href="#DejaVuSans-46"/>
       <use x="95.410156" xlink:href="#DejaVuSans-48"/>
      </g>
     </g>
    </g>
    <g id="ytick_2">
     <g id="line2d_9">
      <path clip-path="url(#p3249170f16)" d="M 49.807187 250.196093 
L 357.012187 250.196093 
" style="fill:none;stroke:#cccccc;stroke-linecap:round;"/>
     </g>
     <g id="text_10">
      <!-- 0.2 -->
      <g style="fill:#262626;" transform="translate(22.81375 254.375233)scale(0.11 -0.11)">
       <use xlink:href="#DejaVuSans-48"/>
       <use x="63.623047" xlink:href="#DejaVuSans-46"/>
       <use x="95.410156" xlink:href="#DejaVuSans-50"/>
      </g>
     </g>
    </g>
    <g id="ytick_3">
     <g id="line2d_10">
      <path clip-path="url(#p3249170f16)" d="M 49.807187 191.30516 
L 357.012187 191.30516 
" style="fill:none;stroke:#cccccc;stroke-linecap:round;"/>
     </g>
     <g id="text_11">
      <!-- 0.4 -->
      <defs>
       <path d="M 37.796875 64.3125 
L 12.890625 25.390625 
L 37.796875 25.390625 
z
M 35.203125 72.90625 
L 47.609375 72.90625 
L 47.609375 25.390625 
L 58.015625 25.390625 
L 58.015625 17.1875 
L 47.609375 17.1875 
L 47.609375 0 
L 37.796875 0 
L 37.796875 17.1875 
L 4.890625 17.1875 
L 4.890625 26.703125 
z
" id="DejaVuSans-52"/>
      </defs>
      <g style="fill:#262626;" transform="translate(22.81375 195.484301)scale(0.11 -0.11)">
       <use xlink:href="#DejaVuSans-48"/>
       <use x="63.623047" xlink:href="#DejaVuSans-46"/>
       <use x="95.410156" xlink:href="#DejaVuSans-52"/>
      </g>
     </g>
    </g>
    <g id="ytick_4">
     <g id="line2d_11">
      <path clip-path="url(#p3249170f16)" d="M 49.807187 132.414227 
L 357.012187 132.414227 
" style="fill:none;stroke:#cccccc;stroke-linecap:round;"/>
     </g>
     <g id="text_12">
      <!-- 0.6 -->
      <defs>
       <path d="M 33.015625 40.375 
Q 26.375 40.375 22.484375 35.828125 
Q 18.609375 31.296875 18.609375 23.390625 
Q 18.609375 15.53125 22.484375 10.953125 
Q 26.375 6.390625 33.015625 6.390625 
Q 39.65625 6.390625 43.53125 10.953125 
Q 47.40625 15.53125 47.40625 23.390625 
Q 47.40625 31.296875 43.53125 35.828125 
Q 39.65625 40.375 33.015625 40.375 
z
M 52.59375 71.296875 
L 52.59375 62.3125 
Q 48.875 64.0625 45.09375 64.984375 
Q 41.3125 65.921875 37.59375 65.921875 
Q 27.828125 65.921875 22.671875 59.328125 
Q 17.53125 52.734375 16.796875 39.40625 
Q 19.671875 43.65625 24.015625 45.921875 
Q 28.375 48.1875 33.59375 48.1875 
Q 44.578125 48.1875 50.953125 41.515625 
Q 57.328125 34.859375 57.328125 23.390625 
Q 57.328125 12.15625 50.6875 5.359375 
Q 44.046875 -1.421875 33.015625 -1.421875 
Q 20.359375 -1.421875 13.671875 8.265625 
Q 6.984375 17.96875 6.984375 36.375 
Q 6.984375 53.65625 15.1875 63.9375 
Q 23.390625 74.21875 37.203125 74.21875 
Q 40.921875 74.21875 44.703125 73.484375 
Q 48.484375 72.75 52.59375 71.296875 
z
" id="DejaVuSans-54"/>
      </defs>
      <g style="fill:#262626;" transform="translate(22.81375 136.593368)scale(0.11 -0.11)">
       <use xlink:href="#DejaVuSans-48"/>
       <use x="63.623047" xlink:href="#DejaVuSans-46"/>
       <use x="95.410156" xlink:href="#DejaVuSans-54"/>
      </g>
     </g>
    </g>
    <g id="ytick_5">
     <g id="line2d_12">
      <path clip-path="url(#p3249170f16)" d="M 49.807187 73.523294 
L 357.012187 73.523294 
" style="fill:none;stroke:#cccccc;stroke-linecap:round;"/>
     </g>
     <g id="text_13">
      <!-- 0.8 -->
      <defs>
       <path d="M 31.78125 34.625 
Q 24.75 34.625 20.71875 30.859375 
Q 16.703125 27.09375 16.703125 20.515625 
Q 16.703125 13.921875 20.71875 10.15625 
Q 24.75 6.390625 31.78125 6.390625 
Q 38.8125 6.390625 42.859375 10.171875 
Q 46.921875 13.96875 46.921875 20.515625 
Q 46.921875 27.09375 42.890625 30.859375 
Q 38.875 34.625 31.78125 34.625 
z
M 21.921875 38.8125 
Q 15.578125 40.375 12.03125 44.71875 
Q 8.5 49.078125 8.5 55.328125 
Q 8.5 64.0625 14.71875 69.140625 
Q 20.953125 74.21875 31.78125 74.21875 
Q 42.671875 74.21875 48.875 69.140625 
Q 55.078125 64.0625 55.078125 55.328125 
Q 55.078125 49.078125 51.53125 44.71875 
Q 48 40.375 41.703125 38.8125 
Q 48.828125 37.15625 52.796875 32.3125 
Q 56.78125 27.484375 56.78125 20.515625 
Q 56.78125 9.90625 50.3125 4.234375 
Q 43.84375 -1.421875 31.78125 -1.421875 
Q 19.734375 -1.421875 13.25 4.234375 
Q 6.78125 9.90625 6.78125 20.515625 
Q 6.78125 27.484375 10.78125 32.3125 
Q 14.796875 37.15625 21.921875 38.8125 
z
M 18.3125 54.390625 
Q 18.3125 48.734375 21.84375 45.5625 
Q 25.390625 42.390625 31.78125 42.390625 
Q 38.140625 42.390625 41.71875 45.5625 
Q 45.3125 48.734375 45.3125 54.390625 
Q 45.3125 60.0625 41.71875 63.234375 
Q 38.140625 66.40625 31.78125 66.40625 
Q 25.390625 66.40625 21.84375 63.234375 
Q 18.3125 60.0625 18.3125 54.390625 
z
" id="DejaVuSans-56"/>
      </defs>
      <g style="fill:#262626;" transform="translate(22.81375 77.702435)scale(0.11 -0.11)">
       <use xlink:href="#DejaVuSans-48"/>
       <use x="63.623047" xlink:href="#DejaVuSans-46"/>
       <use x="95.410156" xlink:href="#DejaVuSans-56"/>
      </g>
     </g>
    </g>
    <g id="ytick_6">
     <g id="line2d_13">
      <path clip-path="url(#p3249170f16)" d="M 49.807187 14.632362 
L 357.012187 14.632362 
" style="fill:none;stroke:#cccccc;stroke-linecap:round;"/>
     </g>
     <g id="text_14">
      <!-- 1.0 -->
      <defs>
       <path d="M 12.40625 8.296875 
L 28.515625 8.296875 
L 28.515625 63.921875 
L 10.984375 60.40625 
L 10.984375 69.390625 
L 28.421875 72.90625 
L 38.28125 72.90625 
L 38.28125 8.296875 
L 54.390625 8.296875 
L 54.390625 0 
L 12.40625 0 
z
" id="DejaVuSans-49"/>
      </defs>
      <g style="fill:#262626;" transform="translate(22.81375 18.811502)scale(0.11 -0.11)">
       <use xlink:href="#DejaVuSans-49"/>
       <use x="63.623047" xlink:href="#DejaVuSans-46"/>
       <use x="95.410156" xlink:href="#DejaVuSans-48"/>
      </g>
     </g>
    </g>
    <g id="text_15">
     <!-- Test Accuracy -->
     <defs>
      <path d="M -0.296875 72.90625 
L 61.375 72.90625 
L 61.375 64.59375 
L 35.5 64.59375 
L 35.5 0 
L 25.59375 0 
L 25.59375 64.59375 
L -0.296875 64.59375 
z
" id="DejaVuSans-84"/>
      <path d="M 8.5 21.578125 
L 8.5 54.6875 
L 17.484375 54.6875 
L 17.484375 21.921875 
Q 17.484375 14.15625 20.5 10.265625 
Q 23.53125 6.390625 29.59375 6.390625 
Q 36.859375 6.390625 41.078125 11.03125 
Q 45.3125 15.671875 45.3125 23.6875 
L 45.3125 54.6875 
L 54.296875 54.6875 
L 54.296875 0 
L 45.3125 0 
L 45.3125 8.40625 
Q 42.046875 3.421875 37.71875 1 
Q 33.40625 -1.421875 27.6875 -1.421875 
Q 18.265625 -1.421875 13.375 4.4375 
Q 8.5 10.296875 8.5 21.578125 
z
M 31.109375 56 
z
" id="DejaVuSans-117"/>
      <path d="M 32.171875 -5.078125 
Q 28.375 -14.84375 24.75 -17.8125 
Q 21.140625 -20.796875 15.09375 -20.796875 
L 7.90625 -20.796875 
L 7.90625 -13.28125 
L 13.1875 -13.28125 
Q 16.890625 -13.28125 18.9375 -11.515625 
Q 21 -9.765625 23.484375 -3.21875 
L 25.09375 0.875 
L 2.984375 54.6875 
L 12.5 54.6875 
L 29.59375 11.921875 
L 46.6875 54.6875 
L 56.203125 54.6875 
z
" id="DejaVuSans-121"/>
     </defs>
     <g style="fill:#262626;" transform="translate(16.318125 205.605)rotate(-90)scale(0.12 -0.12)">
      <use xlink:href="#DejaVuSans-84"/>
      <use x="44.083984" xlink:href="#DejaVuSans-101"/>
      <use x="105.607422" xlink:href="#DejaVuSans-115"/>
      <use x="157.707031" xlink:href="#DejaVuSans-116"/>
      <use x="196.916016" xlink:href="#DejaVuSans-32"/>
      <use x="228.703125" xlink:href="#DejaVuSans-65"/>
      <use x="295.361328" xlink:href="#DejaVuSans-99"/>
      <use x="350.341797" xlink:href="#DejaVuSans-99"/>
      <use x="405.322266" xlink:href="#DejaVuSans-117"/>
      <use x="468.701172" xlink:href="#DejaVuSans-114"/>
      <use x="509.814453" xlink:href="#DejaVuSans-97"/>
      <use x="571.09375" xlink:href="#DejaVuSans-99"/>
      <use x="626.074219" xlink:href="#DejaVuSans-121"/>
     </g>
    </g>
   </g>
   <g id="PathCollection_1">
    <defs>
     <path d="M 0 3 
C 0.795609 3 1.55874 2.683901 2.12132 2.12132 
C 2.683901 1.55874 3 0.795609 3 0 
C 3 -0.795609 2.683901 -1.55874 2.12132 -2.12132 
C 1.55874 -2.683901 0.795609 -3 0 -3 
C -0.795609 -3 -1.55874 -2.683901 -2.12132 -2.12132 
C -2.683901 -1.55874 -3 -0.795609 -3 0 
C -3 0.795609 -2.683901 1.55874 -2.12132 2.12132 
C -1.55874 2.683901 -0.795609 3 0 3 
z
" id="mebf04f0157" style="stroke:#ffffff;stroke-width:0.48;"/>
    </defs>
    <g clip-path="url(#p3249170f16)">
     <use style="fill:#4c72b0;stroke:#ffffff;stroke-width:0.48;" x="63.771051" xlink:href="#mebf04f0157" y="300.055531"/>
     <use style="fill:#4c72b0;stroke:#ffffff;stroke-width:0.48;" x="65.331259" xlink:href="#mebf04f0157" y="300.61418"/>
     <use style="fill:#4c72b0;stroke:#ffffff;stroke-width:0.48;" x="66.891468" xlink:href="#mebf04f0157" y="301.265937"/>
     <use style="fill:#4c72b0;stroke:#ffffff;stroke-width:0.48;" x="68.451676" xlink:href="#mebf04f0157" y="306.898983"/>
     <use style="fill:#4c72b0;stroke:#ffffff;stroke-width:0.48;" x="70.011884" xlink:href="#mebf04f0157" y="307.271416"/>
     <use style="fill:#4c72b0;stroke:#ffffff;stroke-width:0.48;" x="71.572092" xlink:href="#mebf04f0157" y="307.480909"/>
     <use style="fill:#4c72b0;stroke:#ffffff;stroke-width:0.48;" x="73.132301" xlink:href="#mebf04f0157" y="305.199758"/>
     <use style="fill:#4c72b0;stroke:#ffffff;stroke-width:0.48;" x="74.692509" xlink:href="#mebf04f0157" y="305.246312"/>
     <use style="fill:#4c72b0;stroke:#ffffff;stroke-width:0.48;" x="76.252717" xlink:href="#mebf04f0157" y="303.966075"/>
     <use style="fill:#4c72b0;stroke:#ffffff;stroke-width:0.48;" x="77.812925" xlink:href="#mebf04f0157" y="303.29104"/>
     <use style="fill:#4c72b0;stroke:#ffffff;stroke-width:0.48;" x="79.373133" xlink:href="#mebf04f0157" y="302.406513"/>
     <use style="fill:#4c72b0;stroke:#ffffff;stroke-width:0.48;" x="80.933342" xlink:href="#mebf04f0157" y="301.172829"/>
     <use style="fill:#4c72b0;stroke:#ffffff;stroke-width:0.48;" x="82.49355" xlink:href="#mebf04f0157" y="299.82276"/>
     <use style="fill:#4c72b0;stroke:#ffffff;stroke-width:0.48;" x="84.053758" xlink:href="#mebf04f0157" y="296.796744"/>
     <use style="fill:#4c72b0;stroke:#ffffff;stroke-width:0.48;" x="85.613966" xlink:href="#mebf04f0157" y="296.261372"/>
     <use style="fill:#4c72b0;stroke:#ffffff;stroke-width:0.48;" x="87.174175" xlink:href="#mebf04f0157" y="292.956031"/>
     <use style="fill:#4c72b0;stroke:#ffffff;stroke-width:0.48;" x="88.734383" xlink:href="#mebf04f0157" y="289.301534"/>
     <use style="fill:#4c72b0;stroke:#ffffff;stroke-width:0.48;" x="90.294591" xlink:href="#mebf04f0157" y="284.855618"/>
     <use style="fill:#4c72b0;stroke:#ffffff;stroke-width:0.48;" x="91.854799" xlink:href="#mebf04f0157" y="274.59044"/>
     <use style="fill:#4c72b0;stroke:#ffffff;stroke-width:0.48;" x="93.415007" xlink:href="#mebf04f0157" y="256.411065"/>
     <use style="fill:#4c72b0;stroke:#ffffff;stroke-width:0.48;" x="94.975216" xlink:href="#mebf04f0157" y="243.608688"/>
     <use style="fill:#4c72b0;stroke:#ffffff;stroke-width:0.48;" x="96.535424" xlink:href="#mebf04f0157" y="230.876142"/>
     <use style="fill:#4c72b0;stroke:#ffffff;stroke-width:0.48;" x="98.095632" xlink:href="#mebf04f0157" y="200.68581"/>
     <use style="fill:#4c72b0;stroke:#ffffff;stroke-width:0.48;" x="99.65584" xlink:href="#mebf04f0157" y="182.652519"/>
     <use style="fill:#4c72b0;stroke:#ffffff;stroke-width:0.48;" x="101.216049" xlink:href="#mebf04f0157" y="169.065144"/>
     <use style="fill:#4c72b0;stroke:#ffffff;stroke-width:0.48;" x="102.776257" xlink:href="#mebf04f0157" y="148.4481"/>
     <use style="fill:#4c72b0;stroke:#ffffff;stroke-width:0.48;" x="104.336465" xlink:href="#mebf04f0157" y="131.04971"/>
     <use style="fill:#4c72b0;stroke:#ffffff;stroke-width:0.48;" x="105.896673" xlink:href="#mebf04f0157" y="118.382983"/>
     <use style="fill:#4c72b0;stroke:#ffffff;stroke-width:0.48;" x="107.456882" xlink:href="#mebf04f0157" y="104.436017"/>
     <use style="fill:#4c72b0;stroke:#ffffff;stroke-width:0.48;" x="109.01709" xlink:href="#mebf04f0157" y="93.305575"/>
     <use style="fill:#4c72b0;stroke:#ffffff;stroke-width:0.48;" x="110.577298" xlink:href="#mebf04f0157" y="84.682632"/>
     <use style="fill:#4c72b0;stroke:#ffffff;stroke-width:0.48;" x="112.137506" xlink:href="#mebf04f0157" y="78.706852"/>
     <use style="fill:#4c72b0;stroke:#ffffff;stroke-width:0.48;" x="113.697714" xlink:href="#mebf04f0157" y="75.484185"/>
     <use style="fill:#4c72b0;stroke:#ffffff;stroke-width:0.48;" x="115.257923" xlink:href="#mebf04f0157" y="70.0205"/>
     <use style="fill:#4c72b0;stroke:#ffffff;stroke-width:0.48;" x="116.818131" xlink:href="#mebf04f0157" y="66.226341"/>
     <use style="fill:#4c72b0;stroke:#ffffff;stroke-width:0.48;" x="118.378339" xlink:href="#mebf04f0157" y="62.717928"/>
     <use style="fill:#4c72b0;stroke:#ffffff;stroke-width:0.48;" x="119.938547" xlink:href="#mebf04f0157" y="60.220862"/>
     <use style="fill:#4c72b0;stroke:#ffffff;stroke-width:0.48;" x="121.498756" xlink:href="#mebf04f0157" y="58.807384"/>
     <use style="fill:#4c72b0;stroke:#ffffff;stroke-width:0.48;" x="123.058964" xlink:href="#mebf04f0157" y="55.449068"/>
     <use style="fill:#4c72b0;stroke:#ffffff;stroke-width:0.48;" x="124.619172" xlink:href="#mebf04f0157" y="52.435894"/>
     <use style="fill:#4c72b0;stroke:#ffffff;stroke-width:0.48;" x="126.17938" xlink:href="#mebf04f0157" y="49.253359"/>
     <use style="fill:#4c72b0;stroke:#ffffff;stroke-width:0.48;" x="127.739588" xlink:href="#mebf04f0157" y="49.712479"/>
     <use style="fill:#4c72b0;stroke:#ffffff;stroke-width:0.48;" x="129.299797" xlink:href="#mebf04f0157" y="50.125045"/>
     <use style="fill:#4c72b0;stroke:#ffffff;stroke-width:0.48;" x="130.860005" xlink:href="#mebf04f0157" y="50.41079"/>
     <use style="fill:#4c72b0;stroke:#ffffff;stroke-width:0.48;" x="132.420213" xlink:href="#mebf04f0157" y="49.067143"/>
     <use style="fill:#4c72b0;stroke:#ffffff;stroke-width:0.48;" x="133.980421" xlink:href="#mebf04f0157" y="47.264376"/>
     <use style="fill:#4c72b0;stroke:#ffffff;stroke-width:0.48;" x="135.54063" xlink:href="#mebf04f0157" y="45.159007"/>
     <use style="fill:#4c72b0;stroke:#ffffff;stroke-width:0.48;" x="137.100838" xlink:href="#mebf04f0157" y="43.227012"/>
     <use style="fill:#4c72b0;stroke:#ffffff;stroke-width:0.48;" x="138.661046" xlink:href="#mebf04f0157" y="41.90022"/>
     <use style="fill:#4c72b0;stroke:#ffffff;stroke-width:0.48;" x="140.221254" xlink:href="#mebf04f0157" y="41.062246"/>
     <use style="fill:#4c72b0;stroke:#ffffff;stroke-width:0.48;" x="141.781463" xlink:href="#mebf04f0157" y="39.775587"/>
     <use style="fill:#4c72b0;stroke:#ffffff;stroke-width:0.48;" x="143.341671" xlink:href="#mebf04f0157" y="37.431027"/>
     <use style="fill:#4c72b0;stroke:#ffffff;stroke-width:0.48;" x="144.901879" xlink:href="#mebf04f0157" y="35.249405"/>
     <use style="fill:#4c72b0;stroke:#ffffff;stroke-width:0.48;" x="146.462087" xlink:href="#mebf04f0157" y="34.178661"/>
     <use style="fill:#4c72b0;stroke:#ffffff;stroke-width:0.48;" x="148.022295" xlink:href="#mebf04f0157" y="33.363964"/>
     <use style="fill:#4c72b0;stroke:#ffffff;stroke-width:0.48;" x="149.582504" xlink:href="#mebf04f0157" y="32.45616"/>
     <use style="fill:#4c72b0;stroke:#ffffff;stroke-width:0.48;" x="151.142712" xlink:href="#mebf04f0157" y="31.711294"/>
     <use style="fill:#4c72b0;stroke:#ffffff;stroke-width:0.48;" x="152.70292" xlink:href="#mebf04f0157" y="30.786633"/>
     <use style="fill:#4c72b0;stroke:#ffffff;stroke-width:0.48;" x="154.263128" xlink:href="#mebf04f0157" y="29.366733"/>
     <use style="fill:#4c72b0;stroke:#ffffff;stroke-width:0.48;" x="155.823337" xlink:href="#mebf04f0157" y="27.830448"/>
     <use style="fill:#4c72b0;stroke:#ffffff;stroke-width:0.48;" x="157.383545" xlink:href="#mebf04f0157" y="27.225245"/>
     <use style="fill:#4c72b0;stroke:#ffffff;stroke-width:0.48;" x="158.943753" xlink:href="#mebf04f0157" y="26.480379"/>
     <use style="fill:#4c72b0;stroke:#ffffff;stroke-width:0.48;" x="160.503961" xlink:href="#mebf04f0157" y="26.131224"/>
     <use style="fill:#4c72b0;stroke:#ffffff;stroke-width:0.48;" x="162.064169" xlink:href="#mebf04f0157" y="25.782068"/>
     <use style="fill:#4c72b0;stroke:#ffffff;stroke-width:0.48;" x="163.624378" xlink:href="#mebf04f0157" y="25.339804"/>
     <use style="fill:#4c72b0;stroke:#ffffff;stroke-width:0.48;" x="165.184586" xlink:href="#mebf04f0157" y="24.781155"/>
     <use style="fill:#4c72b0;stroke:#ffffff;stroke-width:0.48;" x="166.744794" xlink:href="#mebf04f0157" y="23.826796"/>
     <use style="fill:#4c72b0;stroke:#ffffff;stroke-width:0.48;" x="168.305002" xlink:href="#mebf04f0157" y="23.268147"/>
     <use style="fill:#4c72b0;stroke:#ffffff;stroke-width:0.48;" x="169.865211" xlink:href="#mebf04f0157" y="22.895714"/>
     <use style="fill:#4c72b0;stroke:#ffffff;stroke-width:0.48;" x="171.425419" xlink:href="#mebf04f0157" y="22.662943"/>
     <use style="fill:#4c72b0;stroke:#ffffff;stroke-width:0.48;" x="172.985627" xlink:href="#mebf04f0157" y="22.500004"/>
     <use style="fill:#4c72b0;stroke:#ffffff;stroke-width:0.48;" x="174.545835" xlink:href="#mebf04f0157" y="22.360342"/>
     <use style="fill:#4c72b0;stroke:#ffffff;stroke-width:0.48;" x="176.106044" xlink:href="#mebf04f0157" y="22.220679"/>
     <use style="fill:#4c72b0;stroke:#ffffff;stroke-width:0.48;" x="177.666252" xlink:href="#mebf04f0157" y="22.127571"/>
     <use style="fill:#4c72b0;stroke:#ffffff;stroke-width:0.48;" x="179.22646" xlink:href="#mebf04f0157" y="21.987909"/>
     <use style="fill:#4c72b0;stroke:#ffffff;stroke-width:0.48;" x="180.786668" xlink:href="#mebf04f0157" y="21.987909"/>
     <use style="fill:#4c72b0;stroke:#ffffff;stroke-width:0.48;" x="182.346876" xlink:href="#mebf04f0157" y="21.941355"/>
     <use style="fill:#4c72b0;stroke:#ffffff;stroke-width:0.48;" x="183.907085" xlink:href="#mebf04f0157" y="21.871524"/>
     <use style="fill:#4c72b0;stroke:#ffffff;stroke-width:0.48;" x="185.467293" xlink:href="#mebf04f0157" y="21.82497"/>
     <use style="fill:#4c72b0;stroke:#ffffff;stroke-width:0.48;" x="187.027501" xlink:href="#mebf04f0157" y="21.801693"/>
     <use style="fill:#4c72b0;stroke:#ffffff;stroke-width:0.48;" x="188.587709" xlink:href="#mebf04f0157" y="21.708584"/>
     <use style="fill:#4c72b0;stroke:#ffffff;stroke-width:0.48;" x="190.147918" xlink:href="#mebf04f0157" y="21.755138"/>
     <use style="fill:#4c72b0;stroke:#ffffff;stroke-width:0.48;" x="191.708126" xlink:href="#mebf04f0157" y="21.499091"/>
     <use style="fill:#4c72b0;stroke:#ffffff;stroke-width:0.48;" x="193.268334" xlink:href="#mebf04f0157" y="21.592199"/>
     <use style="fill:#4c72b0;stroke:#ffffff;stroke-width:0.48;" x="194.828542" xlink:href="#mebf04f0157" y="21.708584"/>
     <use style="fill:#4c72b0;stroke:#ffffff;stroke-width:0.48;" x="196.38875" xlink:href="#mebf04f0157" y="21.708584"/>
     <use style="fill:#4c72b0;stroke:#ffffff;stroke-width:0.48;" x="197.948959" xlink:href="#mebf04f0157" y="21.755138"/>
     <use style="fill:#4c72b0;stroke:#ffffff;stroke-width:0.48;" x="199.509167" xlink:href="#mebf04f0157" y="21.685307"/>
     <use style="fill:#4c72b0;stroke:#ffffff;stroke-width:0.48;" x="201.069375" xlink:href="#mebf04f0157" y="21.638753"/>
     <use style="fill:#4c72b0;stroke:#ffffff;stroke-width:0.48;" x="202.629583" xlink:href="#mebf04f0157" y="21.568922"/>
     <use style="fill:#4c72b0;stroke:#ffffff;stroke-width:0.48;" x="204.189792" xlink:href="#mebf04f0157" y="21.592199"/>
     <use style="fill:#4c72b0;stroke:#ffffff;stroke-width:0.48;" x="205.75" xlink:href="#mebf04f0157" y="21.592199"/>
     <use style="fill:#4c72b0;stroke:#ffffff;stroke-width:0.48;" x="207.310208" xlink:href="#mebf04f0157" y="21.568922"/>
     <use style="fill:#4c72b0;stroke:#ffffff;stroke-width:0.48;" x="208.870416" xlink:href="#mebf04f0157" y="21.615476"/>
     <use style="fill:#4c72b0;stroke:#ffffff;stroke-width:0.48;" x="210.430625" xlink:href="#mebf04f0157" y="21.615476"/>
     <use style="fill:#4c72b0;stroke:#ffffff;stroke-width:0.48;" x="211.990833" xlink:href="#mebf04f0157" y="21.568922"/>
     <use style="fill:#4c72b0;stroke:#ffffff;stroke-width:0.48;" x="213.551041" xlink:href="#mebf04f0157" y="21.66203"/>
     <use style="fill:#4c72b0;stroke:#ffffff;stroke-width:0.48;" x="215.111249" xlink:href="#mebf04f0157" y="21.638753"/>
     <use style="fill:#4c72b0;stroke:#ffffff;stroke-width:0.48;" x="216.671457" xlink:href="#mebf04f0157" y="21.848247"/>
     <use style="fill:#4c72b0;stroke:#ffffff;stroke-width:0.48;" x="218.231666" xlink:href="#mebf04f0157" y="22.383619"/>
     <use style="fill:#4c72b0;stroke:#ffffff;stroke-width:0.48;" x="219.791874" xlink:href="#mebf04f0157" y="22.174125"/>
     <use style="fill:#4c72b0;stroke:#ffffff;stroke-width:0.48;" x="221.352082" xlink:href="#mebf04f0157" y="22.081017"/>
     <use style="fill:#4c72b0;stroke:#ffffff;stroke-width:0.48;" x="222.91229" xlink:href="#mebf04f0157" y="22.220679"/>
     <use style="fill:#4c72b0;stroke:#ffffff;stroke-width:0.48;" x="224.472499" xlink:href="#mebf04f0157" y="22.150848"/>
     <use style="fill:#4c72b0;stroke:#ffffff;stroke-width:0.48;" x="226.032707" xlink:href="#mebf04f0157" y="22.337065"/>
     <use style="fill:#4c72b0;stroke:#ffffff;stroke-width:0.48;" x="227.592915" xlink:href="#mebf04f0157" y="22.45345"/>
     <use style="fill:#4c72b0;stroke:#ffffff;stroke-width:0.48;" x="229.153123" xlink:href="#mebf04f0157" y="22.523281"/>
     <use style="fill:#4c72b0;stroke:#ffffff;stroke-width:0.48;" x="230.713331" xlink:href="#mebf04f0157" y="22.523281"/>
     <use style="fill:#4c72b0;stroke:#ffffff;stroke-width:0.48;" x="232.27354" xlink:href="#mebf04f0157" y="22.732774"/>
     <use style="fill:#4c72b0;stroke:#ffffff;stroke-width:0.48;" x="233.833748" xlink:href="#mebf04f0157" y="22.895714"/>
     <use style="fill:#4c72b0;stroke:#ffffff;stroke-width:0.48;" x="235.393956" xlink:href="#mebf04f0157" y="22.965545"/>
     <use style="fill:#4c72b0;stroke:#ffffff;stroke-width:0.48;" x="236.954164" xlink:href="#mebf04f0157" y="23.058653"/>
     <use style="fill:#4c72b0;stroke:#ffffff;stroke-width:0.48;" x="238.514373" xlink:href="#mebf04f0157" y="23.035376"/>
     <use style="fill:#4c72b0;stroke:#ffffff;stroke-width:0.48;" x="240.074581" xlink:href="#mebf04f0157" y="23.151761"/>
     <use style="fill:#4c72b0;stroke:#ffffff;stroke-width:0.48;" x="241.634789" xlink:href="#mebf04f0157" y="23.128484"/>
     <use style="fill:#4c72b0;stroke:#ffffff;stroke-width:0.48;" x="243.194997" xlink:href="#mebf04f0157" y="23.687133"/>
     <use style="fill:#4c72b0;stroke:#ffffff;stroke-width:0.48;" x="244.755206" xlink:href="#mebf04f0157" y="24.338891"/>
     <use style="fill:#4c72b0;stroke:#ffffff;stroke-width:0.48;" x="246.315414" xlink:href="#mebf04f0157" y="24.711324"/>
     <use style="fill:#4c72b0;stroke:#ffffff;stroke-width:0.48;" x="247.875622" xlink:href="#mebf04f0157" y="24.757878"/>
     <use style="fill:#4c72b0;stroke:#ffffff;stroke-width:0.48;" x="249.43583" xlink:href="#mebf04f0157" y="24.990648"/>
     <use style="fill:#4c72b0;stroke:#ffffff;stroke-width:0.48;" x="250.996038" xlink:href="#mebf04f0157" y="25.13031"/>
     <use style="fill:#4c72b0;stroke:#ffffff;stroke-width:0.48;" x="252.556247" xlink:href="#mebf04f0157" y="25.316527"/>
     <use style="fill:#4c72b0;stroke:#ffffff;stroke-width:0.48;" x="254.116455" xlink:href="#mebf04f0157" y="25.619128"/>
     <use style="fill:#4c72b0;stroke:#ffffff;stroke-width:0.48;" x="255.676663" xlink:href="#mebf04f0157" y="27.225245"/>
     <use style="fill:#4c72b0;stroke:#ffffff;stroke-width:0.48;" x="257.236871" xlink:href="#mebf04f0157" y="29.133963"/>
     <use style="fill:#4c72b0;stroke:#ffffff;stroke-width:0.48;" x="258.79708" xlink:href="#mebf04f0157" y="29.576227"/>
     <use style="fill:#4c72b0;stroke:#ffffff;stroke-width:0.48;" x="260.357288" xlink:href="#mebf04f0157" y="30.344369"/>
     <use style="fill:#4c72b0;stroke:#ffffff;stroke-width:0.48;" x="261.917496" xlink:href="#mebf04f0157" y="30.856464"/>
     <use style="fill:#4c72b0;stroke:#ffffff;stroke-width:0.48;" x="263.477704" xlink:href="#mebf04f0157" y="31.903932"/>
     <use style="fill:#4c72b0;stroke:#ffffff;stroke-width:0.48;" x="265.037912" xlink:href="#mebf04f0157" y="32.672074"/>
     <use style="fill:#4c72b0;stroke:#ffffff;stroke-width:0.48;" x="266.598121" xlink:href="#mebf04f0157" y="35.674813"/>
     <use style="fill:#4c72b0;stroke:#ffffff;stroke-width:0.48;" x="268.158329" xlink:href="#mebf04f0157" y="40.283669"/>
     <use style="fill:#4c72b0;stroke:#ffffff;stroke-width:0.48;" x="269.718537" xlink:href="#mebf04f0157" y="41.796677"/>
     <use style="fill:#4c72b0;stroke:#ffffff;stroke-width:0.48;" x="271.278745" xlink:href="#mebf04f0157" y="43.076915"/>
     <use style="fill:#4c72b0;stroke:#ffffff;stroke-width:0.48;" x="272.838954" xlink:href="#mebf04f0157" y="44.543369"/>
     <use style="fill:#4c72b0;stroke:#ffffff;stroke-width:0.48;" x="274.399162" xlink:href="#mebf04f0157" y="45.724077"/>
     <use style="fill:#4c72b0;stroke:#ffffff;stroke-width:0.48;" x="275.95937" xlink:href="#mebf04f0157" y="46.771544"/>
     <use style="fill:#4c72b0;stroke:#ffffff;stroke-width:0.48;" x="277.519578" xlink:href="#mebf04f0157" y="48.633708"/>
     <use style="fill:#4c72b0;stroke:#ffffff;stroke-width:0.48;" x="279.079787" xlink:href="#mebf04f0157" y="56.175472"/>
     <use style="fill:#4c72b0;stroke:#ffffff;stroke-width:0.48;" x="280.639995" xlink:href="#mebf04f0157" y="56.03581"/>
     <use style="fill:#4c72b0;stroke:#ffffff;stroke-width:0.48;" x="282.200203" xlink:href="#mebf04f0157" y="54.825403"/>
     <use style="fill:#4c72b0;stroke:#ffffff;stroke-width:0.48;" x="283.760411" xlink:href="#mebf04f0157" y="55.756485"/>
     <use style="fill:#4c72b0;stroke:#ffffff;stroke-width:0.48;" x="285.320619" xlink:href="#mebf04f0157" y="59.061826"/>
     <use style="fill:#4c72b0;stroke:#ffffff;stroke-width:0.48;" x="286.880828" xlink:href="#mebf04f0157" y="62.809431"/>
     <use style="fill:#4c72b0;stroke:#ffffff;stroke-width:0.48;" x="288.441036" xlink:href="#mebf04f0157" y="65.951832"/>
     <use style="fill:#4c72b0;stroke:#ffffff;stroke-width:0.48;" x="290.001244" xlink:href="#mebf04f0157" y="74.661462"/>
     <use style="fill:#4c72b0;stroke:#ffffff;stroke-width:0.48;" x="291.561452" xlink:href="#mebf04f0157" y="77.338322"/>
     <use style="fill:#4c72b0;stroke:#ffffff;stroke-width:0.48;" x="293.121661" xlink:href="#mebf04f0157" y="84.647316"/>
     <use style="fill:#4c72b0;stroke:#ffffff;stroke-width:0.48;" x="294.681869" xlink:href="#mebf04f0157" y="96.842081"/>
     <use style="fill:#4c72b0;stroke:#ffffff;stroke-width:0.48;" x="296.242077" xlink:href="#mebf04f0157" y="105.105433"/>
     <use style="fill:#4c72b0;stroke:#ffffff;stroke-width:0.48;" x="297.802285" xlink:href="#mebf04f0157" y="111.612572"/>
     <use style="fill:#4c72b0;stroke:#ffffff;stroke-width:0.48;" x="299.362493" xlink:href="#mebf04f0157" y="121.801498"/>
     <use style="fill:#4c72b0;stroke:#ffffff;stroke-width:0.48;" x="300.922702" xlink:href="#mebf04f0157" y="143.463601"/>
     <use style="fill:#4c72b0;stroke:#ffffff;stroke-width:0.48;" x="302.48291" xlink:href="#mebf04f0157" y="158.24854"/>
     <use style="fill:#4c72b0;stroke:#ffffff;stroke-width:0.48;" x="304.043118" xlink:href="#mebf04f0157" y="171.298135"/>
     <use style="fill:#4c72b0;stroke:#ffffff;stroke-width:0.48;" x="305.603326" xlink:href="#mebf04f0157" y="191.413519"/>
     <use style="fill:#4c72b0;stroke:#ffffff;stroke-width:0.48;" x="307.163535" xlink:href="#mebf04f0157" y="203.318525"/>
     <use style="fill:#4c72b0;stroke:#ffffff;stroke-width:0.48;" x="308.723743" xlink:href="#mebf04f0157" y="214.345425"/>
     <use style="fill:#4c72b0;stroke:#ffffff;stroke-width:0.48;" x="310.283951" xlink:href="#mebf04f0157" y="234.018544"/>
     <use style="fill:#4c72b0;stroke:#ffffff;stroke-width:0.48;" x="311.844159" xlink:href="#mebf04f0157" y="245.820008"/>
     <use style="fill:#4c72b0;stroke:#ffffff;stroke-width:0.48;" x="313.404368" xlink:href="#mebf04f0157" y="255.479983"/>
     <use style="fill:#4c72b0;stroke:#ffffff;stroke-width:0.48;" x="314.964576" xlink:href="#mebf04f0157" y="265.698607"/>
     <use style="fill:#4c72b0;stroke:#ffffff;stroke-width:0.48;" x="316.524784" xlink:href="#mebf04f0157" y="276.568989"/>
     <use style="fill:#4c72b0;stroke:#ffffff;stroke-width:0.48;" x="318.084992" xlink:href="#mebf04f0157" y="281.713216"/>
     <use style="fill:#4c72b0;stroke:#ffffff;stroke-width:0.48;" x="319.6452" xlink:href="#mebf04f0157" y="286.554842"/>
     <use style="fill:#4c72b0;stroke:#ffffff;stroke-width:0.48;" x="321.205409" xlink:href="#mebf04f0157" y="293.700896"/>
     <use style="fill:#4c72b0;stroke:#ffffff;stroke-width:0.48;" x="322.765617" xlink:href="#mebf04f0157" y="297.425224"/>
     <use style="fill:#4c72b0;stroke:#ffffff;stroke-width:0.48;" x="324.325825" xlink:href="#mebf04f0157" y="299.566713"/>
     <use style="fill:#4c72b0;stroke:#ffffff;stroke-width:0.48;" x="325.886033" xlink:href="#mebf04f0157" y="301.335768"/>
     <use style="fill:#4c72b0;stroke:#ffffff;stroke-width:0.48;" x="327.446242" xlink:href="#mebf04f0157" y="300.823673"/>
     <use style="fill:#4c72b0;stroke:#ffffff;stroke-width:0.48;" x="329.00645" xlink:href="#mebf04f0157" y="301.335768"/>
     <use style="fill:#4c72b0;stroke:#ffffff;stroke-width:0.48;" x="330.566658" xlink:href="#mebf04f0157" y="302.197019"/>
     <use style="fill:#4c72b0;stroke:#ffffff;stroke-width:0.48;" x="332.126866" xlink:href="#mebf04f0157" y="302.290127"/>
     <use style="fill:#4c72b0;stroke:#ffffff;stroke-width:0.48;" x="333.687074" xlink:href="#mebf04f0157" y="302.685837"/>
     <use style="fill:#4c72b0;stroke:#ffffff;stroke-width:0.48;" x="335.247283" xlink:href="#mebf04f0157" y="303.989352"/>
     <use style="fill:#4c72b0;stroke:#ffffff;stroke-width:0.48;" x="336.807491" xlink:href="#mebf04f0157" y="304.571278"/>
     <use style="fill:#4c72b0;stroke:#ffffff;stroke-width:0.48;" x="338.367699" xlink:href="#mebf04f0157" y="304.47817"/>
     <use style="fill:#4c72b0;stroke:#ffffff;stroke-width:0.48;" x="339.927907" xlink:href="#mebf04f0157" y="305.758408"/>
     <use style="fill:#4c72b0;stroke:#ffffff;stroke-width:0.48;" x="341.488116" xlink:href="#mebf04f0157" y="306.549827"/>
     <use style="fill:#4c72b0;stroke:#ffffff;stroke-width:0.48;" x="343.048324" xlink:href="#mebf04f0157" y="306.270503"/>
    </g>
   </g>
   <g id="patch_3">
    <path d="M 49.807187 321.78 
L 49.807187 7.2 
" style="fill:none;stroke:#cccccc;stroke-linecap:square;stroke-linejoin:miter;stroke-width:1.25;"/>
   </g>
   <g id="patch_4">
    <path d="M 49.807188 321.78 
L 357.012187 321.78 
" style="fill:none;stroke:#cccccc;stroke-linecap:square;stroke-linejoin:miter;stroke-width:1.25;"/>
   </g>
  </g>
 </g>
 <defs>
  <clipPath id="p3249170f16">
   <rect height="314.58" width="307.205" x="49.807187" y="7.2"/>
  </clipPath>
 </defs>
</svg>
